<svg width="41" height="42" viewBox="0 0 41 42" fill="none" xmlns="http://www.w3.org/2000/svg">
<ellipse cx="20.5" cy="21" rx="20.5" ry="21" fill="#2A4893" fill-opacity="0.19"/>
<ellipse cx="20.5" cy="21" rx="11.3889" ry="11.6667" fill="#2A4893"/>
<path d="M24.8993 25.24V27H16.6433V25.608L21.0913 21.384C21.5926 20.904 21.9286 20.488 22.0993 20.136C22.2806 19.7733 22.3713 19.416 22.3713 19.064C22.3713 18.5413 22.1953 18.1413 21.8433 17.864C21.4913 17.5867 20.9739 17.448 20.2913 17.448C19.1499 17.448 18.2753 17.8373 17.6673 18.616L16.2113 17.496C16.6486 16.9093 17.2353 16.456 17.9713 16.136C18.7179 15.8053 19.5499 15.64 20.4673 15.64C21.6833 15.64 22.6539 15.928 23.3793 16.504C24.1046 17.08 24.4673 17.864 24.4673 18.856C24.4673 19.464 24.3393 20.0347 24.0833 20.568C23.8273 21.1013 23.3366 21.7093 22.6113 22.392L19.6193 25.24H24.8993Z" fill="#D2D8E6"/>
</svg>
