<svg xmlns="http://www.w3.org/2000/svg" width="41" height="42" fill="none" viewBox="0 0 41 42"><ellipse cx="20.5" cy="21" fill="#2A4893" fill-opacity=".19" rx="20.5" ry="21"/><ellipse cx="20.5" cy="21" fill="#2A4893" rx="11.389" ry="11.667"/><path fill="#D2D8E6" d="M22.5553 20.424C23.5899 20.552 24.3793 20.904 24.9233 21.48C25.4673 22.056 25.7393 22.776 25.7393 23.64C25.7393 24.2907 25.5739 24.8827 25.2433 25.416C24.9126 25.9493 24.4113 26.376 23.7393 26.696C23.0779 27.0053 22.2673 27.16 21.3073 27.16C20.5073 27.16 19.7339 27.048 18.9873 26.824C18.2513 26.5893 17.6219 26.2693 17.0993 25.864L17.9953 24.248C18.4006 24.5893 18.8913 24.8613 19.4673 25.064C20.0539 25.256 20.6566 25.352 21.2753 25.352C22.0113 25.352 22.5873 25.2027 23.0033 24.904C23.4299 24.5947 23.6433 24.1787 23.6433 23.656C23.6433 23.1333 23.4406 22.728 23.0353 22.44C22.6406 22.1413 22.0326 21.992 21.2113 21.992H20.1873V20.568L22.7313 17.544H17.6433V15.8H25.2753V17.192L22.5553 20.424Z"/></svg>