<svg width="67" height="28" viewBox="0 0 67 28" fill="none" xmlns="http://www.w3.org/2000/svg">
<path d="M14.9625 8.17701C13.9619 8.17701 13.4615 8.72168 13.4615 9.81101V10.419H16.2545V12.319H13.5375V20.489H11.1625V12.319H9.49053V10.419H11.1625V9.77301C11.1625 8.68368 11.4792 7.82868 12.1125 7.20801C12.7459 6.57468 13.6389 6.25801 14.7915 6.25801C15.7035 6.25801 16.4192 6.44168 16.9385 6.80901L16.2735 8.59501C15.8682 8.31635 15.4312 8.17701 14.9625 8.17701ZM21.9642 20.679C20.9382 20.679 19.9439 20.5333 18.9812 20.242C18.0312 19.9507 17.2775 19.5643 16.7202 19.083L17.5752 17.164C18.1199 17.5947 18.7849 17.9493 19.5702 18.228C20.3682 18.494 21.1662 18.627 21.9642 18.627C22.9522 18.627 23.6869 18.4687 24.1682 18.152C24.6622 17.8353 24.9092 17.4173 24.9092 16.898C24.9092 16.518 24.7699 16.2077 24.4912 15.967C24.2252 15.7137 23.8832 15.5173 23.4652 15.378C23.0472 15.2387 22.4772 15.0803 21.7552 14.903C20.7419 14.6623 19.9185 14.4217 19.2852 14.181C18.6645 13.9403 18.1262 13.5667 17.6702 13.06C17.2269 12.5407 17.0052 11.844 17.0052 10.97C17.0052 10.2353 17.2015 9.57035 17.5942 8.97501C17.9995 8.36701 18.6012 7.88568 19.3992 7.53101C20.2099 7.17635 21.1979 6.99901 22.3632 6.99901C23.1739 6.99901 23.9719 7.10035 24.7572 7.30301C25.5425 7.50568 26.2202 7.79701 26.7902 8.17701L26.0112 10.096C25.4285 9.75401 24.8205 9.49435 24.1872 9.31701C23.5539 9.13968 22.9395 9.05101 22.3442 9.05101C21.3689 9.05101 20.6405 9.21568 20.1592 9.54501C19.6905 9.87435 19.4562 10.3113 19.4562 10.856C19.4562 11.236 19.5892 11.5463 19.8552 11.787C20.1339 12.0277 20.4822 12.2177 20.9002 12.357C21.3182 12.4963 21.8882 12.6547 22.6102 12.832C23.5982 13.06 24.4089 13.3007 25.0422 13.554C25.6755 13.7947 26.2139 14.1683 26.6572 14.675C27.1132 15.1817 27.3412 15.8657 27.3412 16.727C27.3412 17.4617 27.1385 18.1267 26.7332 18.722C26.3405 19.3173 25.7389 19.7923 24.9282 20.147C24.1175 20.5017 23.1295 20.679 21.9642 20.679ZM33.9774 20.622C32.9261 20.622 31.9824 20.4003 31.1464 19.957C30.3104 19.5137 29.6581 18.8993 29.1894 18.114C28.7208 17.316 28.4864 16.4167 28.4864 15.416C28.4864 14.4153 28.7208 13.5223 29.1894 12.737C29.6581 11.9517 30.3041 11.3373 31.1274 10.894C31.9634 10.4507 32.9134 10.229 33.9774 10.229C34.9781 10.229 35.8521 10.4317 36.5994 10.837C37.3594 11.2423 37.9294 11.825 38.3094 12.585L36.4854 13.649C36.1941 13.1803 35.8268 12.832 35.3834 12.604C34.9528 12.3633 34.4778 12.243 33.9584 12.243C33.0718 12.243 32.3371 12.5343 31.7544 13.117C31.1718 13.687 30.8804 14.4533 30.8804 15.416C30.8804 16.3787 31.1654 17.1513 31.7354 17.734C32.3181 18.304 33.0591 18.589 33.9584 18.589C34.4778 18.589 34.9528 18.475 35.3834 18.247C35.8268 18.0063 36.1941 17.6517 36.4854 17.183L38.3094 18.247C37.9168 19.007 37.3404 19.596 36.5804 20.014C35.8331 20.4193 34.9654 20.622 33.9774 20.622ZM57.1805 10.229C58.4598 10.229 59.4858 10.6027 60.2585 11.35C61.0311 12.0973 61.4175 13.2057 61.4175 14.675V20.489H59.0425V14.979C59.0425 14.0923 58.8335 13.4273 58.4155 12.984C57.9975 12.528 57.4021 12.3 56.6295 12.3C55.7555 12.3 55.0651 12.566 54.5585 13.098C54.0518 13.6173 53.7985 14.371 53.7985 15.359V20.489H51.4235V10.343H53.6845V11.654C54.0771 11.1853 54.5711 10.8307 55.1665 10.59C55.7618 10.3493 56.4331 10.229 57.1805 10.229Z" fill="#01115D"/>
<path d="M43.9985 10.229C45.4931 10.229 46.6331 10.59 47.4185 11.312C48.2165 12.0213 48.6155 13.098 48.6155 14.542V20.489H46.3735V19.254C46.0821 19.6973 45.6641 20.0393 45.1195 20.28C44.5875 20.508 43.9415 20.622 43.1815 20.622C42.4215 20.622 41.7565 20.4953 41.1865 20.242C40.6165 19.976 40.1731 19.615 39.8565 19.159C39.5525 18.6903 39.4005 18.1647 39.4005 17.582C39.4005 16.67 39.7361 15.9417 40.4075 15.397C41.0915 14.8397 42.1618 14.561 43.6185 14.561H46.2405V14.409C46.2405 13.6997 46.0251 13.155 45.5945 12.775C45.1765 12.395 44.5495 12.205 43.7135 12.205C43.1435 12.205 42.5798 12.2937 42.0225 12.471C41.4778 12.6483 41.0155 12.8953 40.6355 13.212L39.7045 11.483C40.2365 11.0777 40.8761 10.7673 41.6235 10.552C42.3708 10.3367 43.1625 10.229 43.9985 10.229ZM43.6755 18.893C44.2708 18.893 44.7965 18.76 45.2525 18.494C45.7211 18.2153 46.0505 17.8227 46.2405 17.316V16.138H43.7895C42.4215 16.138 41.7375 16.5877 41.7375 17.487C41.7375 17.9177 41.9085 18.2597 42.2505 18.513C42.5925 18.7663 43.0675 18.893 43.6755 18.893Z" fill="#F9A825"/>
<path d="M1.34 6.66667C1.69539 6.66667 2.03622 6.59643 2.28752 6.47141C2.53882 6.34638 2.68 6.17681 2.68 6V2C2.68 1.82319 2.82118 1.65362 3.07248 1.5286C3.32378 1.40357 3.66461 1.33333 4.02 1.33333H12.06C12.4154 1.33333 12.7562 1.2631 13.0075 1.13807C13.2588 1.01305 13.4 0.843478 13.4 0.666667C13.4 0.489856 13.2588 0.320287 13.0075 0.195262C12.7562 0.070238 12.4154 0 12.06 0H4.02C2.95383 0 1.93133 0.210713 1.17743 0.585786C0.423534 0.960859 0 1.46957 0 2V6C0 6.17681 0.141178 6.34638 0.392477 6.47141C0.643776 6.59643 0.98461 6.66667 1.34 6.66667Z" fill="#F9A825"/>
<path d="M12.06 26.6666H4.02C3.66461 26.6666 3.32378 26.5963 3.07248 26.4713C2.82118 26.3463 2.68 26.1767 2.68 25.9999V21.9999C2.68 21.8231 2.53882 21.6535 2.28752 21.5285C2.03622 21.4035 1.69539 21.3333 1.34 21.3333C0.98461 21.3333 0.643776 21.4035 0.392477 21.5285C0.141178 21.6535 0 21.8231 0 21.9999V25.9999C0 26.5304 0.423534 27.0391 1.17743 27.4141C1.93133 27.7892 2.95383 27.9999 4.02 27.9999H12.06C12.4154 27.9999 12.7562 27.9297 13.0075 27.8047C13.2588 27.6796 13.4 27.5101 13.4 27.3333C13.4 27.1564 13.2588 26.9869 13.0075 26.8618C12.7562 26.7368 12.4154 26.6666 12.06 26.6666Z" fill="#F9A825"/>
<path d="M65.66 21.3333C65.3046 21.3333 64.9637 21.4035 64.7125 21.5285C64.4612 21.6535 64.32 21.8231 64.32 21.9999V25.9999C64.32 26.1767 64.1788 26.3463 63.9275 26.4713C63.6762 26.5963 63.3354 26.6666 62.98 26.6666H54.94C54.5846 26.6666 54.2438 26.7368 53.9925 26.8618C53.7412 26.9869 53.6 27.1564 53.6 27.3333C53.6 27.5101 53.7412 27.6796 53.9925 27.8047C54.2438 27.9297 54.5846 27.9999 54.94 27.9999H62.98C64.0461 27.9999 65.0686 27.7892 65.8225 27.4141C66.5764 27.0391 67 26.5304 67 25.9999V21.9999C67 21.8231 66.8588 21.6535 66.6075 21.5285C66.3562 21.4035 66.0154 21.3333 65.66 21.3333Z" fill="#F9A825"/>
<path d="M62.98 0H54.94C54.5846 0 54.2438 0.070238 53.9925 0.195262C53.7412 0.320287 53.6 0.489856 53.6 0.666667C53.6 0.843478 53.7412 1.01305 53.9925 1.13807C54.2438 1.2631 54.5846 1.33333 54.94 1.33333H62.98C63.3354 1.33333 63.6762 1.40357 63.9275 1.5286C64.1788 1.65362 64.32 1.82319 64.32 2V6C64.32 6.17681 64.4612 6.34638 64.7125 6.47141C64.9637 6.59643 65.3046 6.66667 65.66 6.66667C66.0154 6.66667 66.3562 6.59643 66.6075 6.47141C66.8588 6.34638 67 6.17681 67 6V2C67 1.46957 66.5764 0.960859 65.8225 0.585786C65.0686 0.210713 64.0461 0 62.98 0Z" fill="#F9A825"/>
</svg>
