<svg xmlns="http://www.w3.org/2000/svg" width="90" height="90" fill="none" viewBox="0 0 90 90"><circle cx="45" cy="45" r="45" fill="#2A4893" fill-opacity=".19"/><path fill="#2A4893" fill-rule="evenodd" d="M69 45C69 51.3652 66.4714 57.4697 61.9706 61.9706C57.4697 66.4714 51.3652 69 45 69C38.6348 69 32.5303 66.4714 28.0294 61.9706C23.5286 57.4697 21 51.3652 21 45C21 38.6348 23.5286 32.5303 28.0294 28.0294C32.5303 23.5286 38.6348 21 45 21C51.3652 21 57.4697 23.5286 61.9706 28.0294C66.4714 32.5303 69 38.6348 69 45ZM57.09 35.91C56.8757 35.6965 56.6206 35.5283 56.3398 35.4156C56.059 35.303 55.7584 35.2481 55.456 35.2542C55.1535 35.2604 54.8554 35.3275 54.5795 35.4515C54.3035 35.5755 54.0554 35.7539 53.85 35.976L43.431 49.251L37.152 42.969C36.7255 42.5716 36.1613 42.3552 35.5784 42.3655C34.9955 42.3758 34.4394 42.6119 34.0271 43.0241C33.6149 43.4364 33.3788 43.9925 33.3685 44.5754C33.3582 45.1583 33.5746 45.7225 33.972 46.149L41.91 54.09C42.1238 54.3035 42.3785 54.4717 42.6588 54.5846C42.939 54.6975 43.2391 54.7528 43.5412 54.7472C43.8433 54.7416 44.1412 54.6752 44.4171 54.552C44.693 54.4288 44.9412 54.2512 45.147 54.03L57.123 39.06C57.5313 38.6355 57.7568 38.0678 57.7512 37.4789C57.7456 36.8899 57.5093 36.3266 57.093 35.91H57.09Z" clip-rule="evenodd"/></svg>