<svg width="1440" height="728" viewBox="0 0 1440 728" fill="none" xmlns="http://www.w3.org/2000/svg">
<path d="M691.5 42.9998C797 42.9998 897.5 34.9999 897.5 86.4998C890 199.5 844.072 298.15 737.131 313.028C630.189 327.905 530.849 249.06 515.248 136.922C499.647 24.7835 580.5 42.9999 691.5 42.9998Z" fill="url(#paint0_linear)"/>
<ellipse cx="838.883" cy="497.983" rx="205" ry="195.5" transform="rotate(-97.9202 838.883 497.983)" fill="url(#paint1_linear)"/>
<path d="M1388.63 268.938C1475 259 1422 349 1439.5 454.5C1434.37 572.5 1433.87 541.972 1439.5 675C1332.56 689.878 1238.85 611.06 1223.25 498.922C1207.65 386.783 1281.69 283.816 1388.63 268.938Z" fill="url(#paint2_linear)"/>
<ellipse cx="130.5" cy="318.888" rx="134.508" ry="128.188" transform="rotate(-97.9202 130.5 318.888)" fill="url(#paint3_linear)"/>
<ellipse cx="449" cy="603.664" rx="61.8402" ry="61.0613" transform="rotate(-97.9202 449 603.664)" fill="url(#paint4_linear)"/>
<path d="M1294.81 64.2292C1329.31 65.2293 1355.58 67.652 1360.28 101.48C1364.99 135.307 1341.73 166.497 1308.33 171.144C1274.93 175.791 1244.03 152.135 1239.33 118.307C1234.62 84.4798 1261.4 68.8761 1294.81 64.2292Z" fill="url(#paint5_linear)"/>
<ellipse cx="1108" cy="232.664" rx="61.8402" ry="61.0613" transform="rotate(-97.9202 1108 232.664)" fill="url(#paint6_linear)"/>
<defs>
<linearGradient id="paint0_linear" x1="443.618" y1="147.246" x2="990.892" y2="71.1083" gradientUnits="userSpaceOnUse">
<stop stop-color="#041877" stop-opacity="0.96"/>
<stop offset="0.93846" stop-color="#031155" stop-opacity="0"/>
</linearGradient>
<linearGradient id="paint1_linear" x1="838.528" y1="230.114" x2="838.528" y2="782.658" gradientUnits="userSpaceOnUse">
<stop stop-color="#041877" stop-opacity="0.96"/>
<stop offset="0.93846" stop-color="#031155" stop-opacity="0"/>
</linearGradient>
<linearGradient id="paint2_linear" x1="1319.5" y1="512" x2="1698.89" y2="433.108" gradientUnits="userSpaceOnUse">
<stop stop-color="#041877" stop-opacity="0.96"/>
<stop offset="0.93846" stop-color="#031155" stop-opacity="0"/>
</linearGradient>
<linearGradient id="paint3_linear" x1="113.299" y1="252.028" x2="130.244" y2="505.55" gradientUnits="userSpaceOnUse">
<stop stop-color="#041877" stop-opacity="0.96"/>
<stop offset="0.93846" stop-color="#031155" stop-opacity="0"/>
</linearGradient>
<linearGradient id="paint4_linear" x1="441.092" y1="571.816" x2="449.452" y2="692.539" gradientUnits="userSpaceOnUse">
<stop stop-color="#041877" stop-opacity="0.96"/>
<stop offset="0.93846" stop-color="#031155" stop-opacity="0"/>
</linearGradient>
<linearGradient id="paint5_linear" x1="1269.35" y1="122.115" x2="1387.77" y2="97.1994" gradientUnits="userSpaceOnUse">
<stop stop-color="#041877" stop-opacity="0.96"/>
<stop offset="0.93846" stop-color="#031155" stop-opacity="0"/>
</linearGradient>
<linearGradient id="paint6_linear" x1="1100.09" y1="200.816" x2="1108.45" y2="321.539" gradientUnits="userSpaceOnUse">
<stop stop-color="#041877" stop-opacity="0.96"/>
<stop offset="0.93846" stop-color="#031155" stop-opacity="0"/>
</linearGradient>
</defs>
</svg>
