<svg width="1440" height="838" viewBox="0 0 1440 838" fill="none" xmlns="http://www.w3.org/2000/svg">
<path d="M0 0H1440V500.881L1286.75 653.97C1286.75 653.97 1193.35 758.504 1133.5 825.484C690.841 791.607 0 738.735 0 738.735V0Z" fill="#BFC7EE"/>
<mask id="mask0" mask-type="alpha" maskUnits="userSpaceOnUse" x="0" y="0" width="1440" height="804">
<path d="M0 0H1440V487.5L1286.75 636.5L1133.5 803.432L0 719V0Z" fill="#232358"/>
</mask>
<g mask="url(#mask0)">
<path d="M0 0H1440V500.881L1286.75 653.97L1133.5 825.484L0 738.735V0Z" fill="#01115D"/>
<path d="M1831.25 515C1831.25 765.17 1586.54 967.974 1284.67 967.974C982.805 967.974 752.247 999.041 675.247 745.041C578.747 524.041 911.235 6.37854 1213.1 6.37854C1514.97 6.37854 1831.25 264.83 1831.25 515Z" fill="#04166A"/>
</g>
</svg>
