<svg xmlns="http://www.w3.org/2000/svg" width="20" height="20" fill="none" viewBox="0 0 20 20"><path fill="#CFCCE0" d="M9.6 0C4.298 0 0 4.298 0 9.6C0 14.902 4.298 19.2 9.6 19.2C14.902 19.2 19.2 14.902 19.2 9.6C19.2 4.298 14.902 0 9.6 0ZM7.25 13.579H5.306V7.323H7.25V13.579ZM6.266 6.555C5.652 6.555 5.255 6.12 5.255 5.582C5.255 5.033 5.664 4.611 6.291 4.611C6.918 4.611 7.302 5.033 7.314 5.582C7.314 6.12 6.918 6.555 6.266 6.555ZM14.35 13.579H12.406V10.112C12.406 9.305 12.124 8.757 11.421 8.757C10.884 8.757 10.565 9.128 10.424 9.485C10.372 9.612 10.359 9.792 10.359 9.971V13.578H8.414V9.318C8.414 8.537 8.389 7.884 8.363 7.322H10.052L10.141 8.191H10.18C10.436 7.783 11.063 7.181 12.112 7.181C13.391 7.181 14.35 8.038 14.35 9.88V13.579Z"/></svg>