<svg width="104" height="45" viewBox="0 0 104 45" fill="none" xmlns="http://www.w3.org/2000/svg">
<path d="M22.3836 13.56C20.8036 13.56 20.0136 14.42 20.0136 16.14V17.1H24.4236V20.1H20.1336V33H16.3836V20.1H13.7436V17.1H16.3836V16.08C16.3836 14.36 16.8836 13.01 17.8836 12.03C18.8836 11.03 20.2936 10.53 22.1136 10.53C23.5536 10.53 24.6836 10.82 25.5036 11.4L24.4536 14.22C23.8136 13.78 23.1236 13.56 22.3836 13.56ZM33.5778 33.3C31.9578 33.3 30.3878 33.07 28.8678 32.61C27.3678 32.15 26.1778 31.54 25.2978 30.78L26.6478 27.75C27.5078 28.43 28.5578 28.99 29.7978 29.43C31.0578 29.85 32.3178 30.06 33.5778 30.06C35.1378 30.06 36.2978 29.81 37.0578 29.31C37.8378 28.81 38.2278 28.15 38.2278 27.33C38.2278 26.73 38.0078 26.24 37.5678 25.86C37.1478 25.46 36.6078 25.15 35.9478 24.93C35.2878 24.71 34.3878 24.46 33.2478 24.18C31.6478 23.8 30.3478 23.42 29.3478 23.04C28.3678 22.66 27.5178 22.07 26.7978 21.27C26.0978 20.45 25.7478 19.35 25.7478 17.97C25.7478 16.81 26.0578 15.76 26.6778 14.82C27.3178 13.86 28.2678 13.1 29.5278 12.54C30.8078 11.98 32.3678 11.7 34.2078 11.7C35.4878 11.7 36.7478 11.86 37.9878 12.18C39.2278 12.5 40.2978 12.96 41.1978 13.56L39.9678 16.59C39.0478 16.05 38.0878 15.64 37.0878 15.36C36.0878 15.08 35.1178 14.94 34.1778 14.94C32.6378 14.94 31.4878 15.2 30.7278 15.72C29.9878 16.24 29.6178 16.93 29.6178 17.79C29.6178 18.39 29.8278 18.88 30.2478 19.26C30.6878 19.64 31.2378 19.94 31.8978 20.16C32.5578 20.38 33.4578 20.63 34.5978 20.91C36.1578 21.27 37.4378 21.65 38.4378 22.05C39.4378 22.43 40.2878 23.02 40.9878 23.82C41.7078 24.62 42.0678 25.7 42.0678 27.06C42.0678 28.22 41.7478 29.27 41.1078 30.21C40.4878 31.15 39.5378 31.9 38.2578 32.46C36.9778 33.02 35.4178 33.3 33.5778 33.3ZM52.685 33.21C51.025 33.21 49.535 32.86 48.215 32.16C46.895 31.46 45.865 30.49 45.125 29.25C44.385 27.99 44.015 26.57 44.015 24.99C44.015 23.41 44.385 22 45.125 20.76C45.865 19.52 46.885 18.55 48.185 17.85C49.505 17.15 51.005 16.8 52.685 16.8C54.265 16.8 55.645 17.12 56.825 17.76C58.025 18.4 58.925 19.32 59.525 20.52L56.645 22.2C56.185 21.46 55.605 20.91 54.905 20.55C54.225 20.17 53.475 19.98 52.655 19.98C51.255 19.98 50.095 20.44 49.175 21.36C48.255 22.26 47.795 23.47 47.795 24.99C47.795 26.51 48.245 27.73 49.145 28.65C50.065 29.55 51.235 30 52.655 30C53.475 30 54.225 29.82 54.905 29.46C55.605 29.08 56.185 28.52 56.645 27.78L59.525 29.46C58.905 30.66 57.995 31.59 56.795 32.25C55.615 32.89 54.245 33.21 52.685 33.21ZM89.5993 16.8C91.6193 16.8 93.2393 17.39 94.4593 18.57C95.6793 19.75 96.2893 21.5 96.2893 23.82V33H92.5393V24.3C92.5393 22.9 92.2093 21.85 91.5493 21.15C90.8893 20.43 89.9493 20.07 88.7293 20.07C87.3493 20.07 86.2593 20.49 85.4593 21.33C84.6593 22.15 84.2593 23.34 84.2593 24.9V33H80.5093V16.98H84.0793V19.05C84.6993 18.31 85.4793 17.75 86.4193 17.37C87.3593 16.99 88.4193 16.8 89.5993 16.8Z" fill="white"/>
<path d="M68.6466 16.8C71.0066 16.8 72.8066 17.37 74.0466 18.51C75.3066 19.63 75.9366 21.33 75.9366 23.61V33H72.3966V31.05C71.9366 31.75 71.2766 32.29 70.4166 32.67C69.5766 33.03 68.5566 33.21 67.3566 33.21C66.1566 33.21 65.1066 33.01 64.2066 32.61C63.3066 32.19 62.6066 31.62 62.1066 30.9C61.6266 30.16 61.3866 29.33 61.3866 28.41C61.3866 26.97 61.9166 25.82 62.9766 24.96C64.0566 24.08 65.7466 23.64 68.0466 23.64H72.1866V23.4C72.1866 22.28 71.8466 21.42 71.1666 20.82C70.5066 20.22 69.5166 19.92 68.1966 19.92C67.2966 19.92 66.4066 20.06 65.5266 20.34C64.6666 20.62 63.9366 21.01 63.3366 21.51L61.8666 18.78C62.7066 18.14 63.7166 17.65 64.8966 17.31C66.0766 16.97 67.3266 16.8 68.6466 16.8ZM68.1366 30.48C69.0766 30.48 69.9066 30.27 70.6266 29.85C71.3666 29.41 71.8866 28.79 72.1866 27.99V26.13H68.3166C66.1566 26.13 65.0766 26.84 65.0766 28.26C65.0766 28.94 65.3466 29.48 65.8866 29.88C66.4266 30.28 67.1766 30.48 68.1366 30.48Z" fill="#F9A825"/>
<path d="M2.08 10.7143C2.63165 10.7143 3.16071 10.6014 3.55078 10.4005C3.94086 10.1995 4.16 9.92702 4.16 9.64286V3.21429C4.16 2.93012 4.37914 2.6576 4.76922 2.45667C5.15929 2.25574 5.68835 2.14286 6.24 2.14286H18.72C19.2717 2.14286 19.8007 2.02997 20.1908 1.82904C20.5809 1.62811 20.8 1.35559 20.8 1.07143C20.8 0.787268 20.5809 0.514746 20.1908 0.313814C19.8007 0.112883 19.2717 0 18.72 0H6.24C4.58505 0 2.99788 0.338647 1.82765 0.941442C0.657427 1.54424 0 2.3618 0 3.21429V9.64286C0 9.92702 0.219142 10.1995 0.609218 10.4005C0.999293 10.6014 1.52835 10.7143 2.08 10.7143Z" fill="#F9A825"/>
<path d="M18.72 42.8571H6.24C5.68835 42.8571 5.15929 42.7443 4.76922 42.5433C4.37914 42.3424 4.16 42.0699 4.16 41.7857V35.3571C4.16 35.073 3.94086 34.8005 3.55078 34.5995C3.16071 34.3986 2.63165 34.2857 2.08 34.2857C1.52835 34.2857 0.999293 34.3986 0.609218 34.5995C0.219142 34.8005 0 35.073 0 35.3571V41.7857C0 42.6382 0.657427 43.4558 1.82765 44.0585C2.99788 44.6613 4.58505 45 6.24 45H18.72C19.2717 45 19.8007 44.8871 20.1908 44.6862C20.5809 44.4852 20.8 44.2127 20.8 43.9286C20.8 43.6444 20.5809 43.3719 20.1908 43.1709C19.8007 42.97 19.2717 42.8571 18.72 42.8571Z" fill="#F9A825"/>
<path d="M101.92 34.2857C101.368 34.2857 100.839 34.3986 100.449 34.5995C100.059 34.8005 99.84 35.073 99.84 35.3571V41.7857C99.84 42.0699 99.6209 42.3424 99.2308 42.5433C98.8407 42.7443 98.3117 42.8571 97.76 42.8571H85.28C84.7284 42.8571 84.1993 42.97 83.8092 43.1709C83.4192 43.3719 83.2 43.6444 83.2 43.9286C83.2 44.2127 83.4192 44.4852 83.8092 44.6862C84.1993 44.8871 84.7284 45 85.28 45H97.76C99.415 45 101.002 44.6613 102.172 44.0585C103.343 43.4558 104 42.6382 104 41.7857V35.3571C104 35.073 103.781 34.8005 103.391 34.5995C103.001 34.3986 102.472 34.2857 101.92 34.2857Z" fill="#F9A825"/>
<path d="M97.76 0H85.28C84.7284 0 84.1993 0.112883 83.8092 0.313814C83.4192 0.514746 83.2 0.787268 83.2 1.07143C83.2 1.35559 83.4192 1.62811 83.8092 1.82904C84.1993 2.02997 84.7284 2.14286 85.28 2.14286H97.76C98.3117 2.14286 98.8407 2.25574 99.2308 2.45667C99.6209 2.6576 99.84 2.93012 99.84 3.21429V9.64286C99.84 9.92702 100.059 10.1995 100.449 10.4005C100.839 10.6014 101.368 10.7143 101.92 10.7143C102.472 10.7143 103.001 10.6014 103.391 10.4005C103.781 10.1995 104 9.92702 104 9.64286V3.21429C104 2.3618 103.343 1.54424 102.172 0.941442C101.002 0.338647 99.415 0 97.76 0Z" fill="#F9A825"/>
</svg>
