<svg width="50" height="50" viewBox="0 0 50 50" fill="none" xmlns="http://www.w3.org/2000/svg">
<circle cx="25" cy="25" r="25" fill="#BFFFFF"/>
<path d="M16.0625 13V18.1562H15V20.2188H18.1875V15.0625H35.1875V35.6875H18.1875V32.5938H16.0625V37.75H37.3125V13H16.0625ZM26.6875 19.1875C24.35 19.1875 22.4375 21.0437 22.4375 23.3125C22.4375 24.4603 22.9443 25.4957 23.7327 26.2454C23.0098 26.7194 22.4171 27.3576 22.0062 28.1045C21.5953 28.8515 21.3787 29.6845 21.375 30.5312H23.5C23.5 29.7107 23.8358 28.9238 24.4336 28.3436C25.0314 27.7634 25.8421 27.4375 26.6875 27.4375C27.5329 27.4375 28.3436 27.7634 28.9414 28.3436C29.5392 28.9238 29.875 29.7107 29.875 30.5312H32C31.9963 29.6845 31.7796 28.8515 31.3688 28.1045C30.9579 27.3576 30.3652 26.7194 29.6423 26.2454C30.4307 25.4957 30.9375 24.4613 30.9375 23.3125C30.9375 21.0437 29.025 19.1875 26.6875 19.1875ZM16.0625 21.25V23.3125H15V25.375H18.1875V21.25H16.0625ZM26.6875 21.25C27.8743 21.25 28.8125 22.1606 28.8125 23.3125C28.8125 24.4644 27.8743 25.375 26.6875 25.375C25.5007 25.375 24.5625 24.4644 24.5625 23.3125C24.5625 22.1606 25.5007 21.25 26.6875 21.25ZM16.0625 26.4062V28.4688H15V30.5312H18.1875V26.4062H16.0625Z" fill="#0F9898"/>
</svg>
