<svg width="50" height="50" viewBox="0 0 50 50" fill="none" xmlns="http://www.w3.org/2000/svg">
<circle cx="25" cy="25" r="25" fill="#AA6F6F" fill-opacity="0.24"/>
<g clip-path="url(#clip0)">
<path fill-rule="evenodd" clip-rule="evenodd" d="M38.3334 25C38.3334 28.5362 36.9287 31.9276 34.4282 34.4281C31.9277 36.9286 28.5363 38.3334 25.0001 38.3334C21.4639 38.3334 18.0725 36.9286 15.572 34.4281C13.0715 31.9276 11.6667 28.5362 11.6667 25C11.6667 21.4638 13.0715 18.0724 15.572 15.5719C18.0725 13.0714 21.4639 11.6667 25.0001 11.6667C28.5363 11.6667 31.9277 13.0714 34.4282 15.5719C36.9287 18.0724 38.3334 21.4638 38.3334 25V25ZM31.7167 19.95C31.5977 19.8314 31.4559 19.738 31.3 19.6754C31.144 19.6128 30.977 19.5823 30.809 19.5857C30.6409 19.5891 30.4753 19.6264 30.322 19.6953C30.1687 19.7642 30.0309 19.8633 29.9167 19.9867L24.1284 27.3617L20.6401 23.8717C20.4031 23.6509 20.0897 23.5307 19.7659 23.5364C19.442 23.5421 19.1331 23.6733 18.904 23.9023C18.675 24.1313 18.5438 24.4403 18.5381 24.7641C18.5324 25.088 18.6526 25.4014 18.8734 25.6384L23.2834 30.05C23.4022 30.1686 23.5437 30.262 23.6994 30.3248C23.8551 30.3875 24.0218 30.4182 24.1897 30.4151C24.3575 30.412 24.523 30.3751 24.6762 30.3067C24.8295 30.2382 24.9674 30.1396 25.0817 30.0167L31.7351 21.7C31.9619 21.4642 32.0872 21.1488 32.0841 20.8216C32.081 20.4944 31.9497 20.1815 31.7184 19.95H31.7167Z" fill="#AE6D6D"/>
</g>
<defs>
<clipPath id="clip0">
<rect width="26.6667" height="26.6667" fill="white" transform="translate(11.6667 11.6667)"/>
</clipPath>
</defs>
</svg>
