<svg width="50" height="50" viewBox="0 0 50 50" fill="none" xmlns="http://www.w3.org/2000/svg">
<circle cx="25" cy="25" r="25" fill="#FFD899"/>
<path d="M34.8184 17.8407H29.1842C28.5813 16.1888 26.9335 15 25 15C24.2958 15 23.6222 15.1533 22.998 15.4557C22.6264 15.6357 22.9181 16.1842 23.2897 16.0043C23.8227 15.7462 24.3981 15.6152 25 15.6152C27.087 15.6152 28.7849 17.236 28.7849 19.2281C28.7849 21.2202 27.087 22.841 25 22.841C22.913 22.841 21.2151 21.2202 21.2151 19.2281C21.2151 18.3666 21.5381 17.5323 22.1245 16.8789C22.3956 16.5769 21.9061 16.1765 21.635 16.4786C21.2726 16.8823 20.9972 17.3454 20.8169 17.8407H15.1816C14.5301 17.8407 14 18.3466 14 18.9686V34.8721C14 35.494 14.5301 36 15.1816 36H34.8184C35.4699 36 36 35.494 36 34.8721V21.5625V18.9686C36 18.3467 35.4699 17.8407 34.8184 17.8407ZM34.8184 18.4559C35.1145 18.4559 35.3555 18.6859 35.3555 18.9686V21.2549H28.8864C29.3739 20.4065 29.5399 19.4073 29.3551 18.4559H34.8184ZM15.1816 18.4559H20.6456C20.4603 19.4076 20.6259 20.4061 21.1136 21.2549H14.6445V18.9686C14.6445 18.6859 14.8855 18.4559 15.1816 18.4559ZM34.8184 35.3848H15.1816C14.8855 35.3848 14.6445 35.1548 14.6445 34.8721V21.8701H21.5446C22.357 22.8364 23.604 23.4562 25 23.4562C26.3985 23.4562 27.6475 22.8341 28.4599 21.8649C28.4787 21.8681 35.3555 21.8701 35.3555 21.8701V34.8721C35.3555 35.1548 35.1145 35.3848 34.8184 35.3848Z" fill="#E67C00"/>
<path d="M31.8391 29.8597H18.1608C15.7769 29.8597 15.7728 33.3951 18.1608 33.3951H31.8391C34.223 33.3951 34.2271 29.8597 31.8391 29.8597ZM31.8391 32.7798H18.1608C16.6073 32.7798 16.5966 30.4749 18.1608 30.4749H31.8391C33.3927 30.4749 33.4033 32.7798 31.8391 32.7798Z" fill="#E67C00"/>
<path d="M19.2056 31.3197C18.7909 31.3197 18.7902 31.9349 19.2056 31.9349C19.6203 31.9349 19.621 31.3197 19.2056 31.3197Z" fill="#E67C00"/>
<path d="M20.8611 31.3197C20.4464 31.3197 20.4457 31.9349 20.8611 31.9349C21.2758 31.9349 21.2765 31.3197 20.8611 31.3197Z" fill="#E67C00"/>
<path d="M22.5169 31.3197C22.1021 31.3197 22.1015 31.9349 22.5169 31.9349C22.9316 31.9349 22.9323 31.3197 22.5169 31.3197Z" fill="#E67C00"/>
<path d="M24.1721 31.3197C23.7574 31.3197 23.7567 31.9349 24.1721 31.9349C24.5869 31.9349 24.5876 31.3197 24.1721 31.3197Z" fill="#E67C00"/>
<path d="M25.8277 31.3197C25.4129 31.3197 25.4122 31.9349 25.8277 31.9349C26.2424 31.9349 26.2431 31.3197 25.8277 31.3197Z" fill="#E67C00"/>
<path d="M27.4832 31.3197C27.0684 31.3197 27.0678 31.9349 27.4832 31.9349C27.8979 31.9349 27.8986 31.3197 27.4832 31.3197Z" fill="#E67C00"/>
<path d="M29.1389 31.3197C28.7242 31.3197 28.7235 31.9349 29.1389 31.9349C29.5537 31.9349 29.5544 31.3197 29.1389 31.3197Z" fill="#E67C00"/>
<path d="M30.7942 31.3197C30.3795 31.3197 30.3788 31.9349 30.7942 31.9349C31.209 31.9349 31.2096 31.3197 30.7942 31.3197Z" fill="#E67C00"/>
<path d="M31.8391 25.2177H18.1608C15.7769 25.2177 15.7728 28.7531 18.1608 28.7531H29.0088C29.4255 28.7531 29.4255 28.1379 29.0088 28.1379H18.1608C16.6073 28.1379 16.5966 25.8329 18.1608 25.8329H31.8391C33.3926 25.8329 33.4033 28.1379 31.8391 28.1379H30.7276C30.3109 28.1379 30.3109 28.7531 30.7276 28.7531H31.8391C34.223 28.7531 34.2271 25.2177 31.8391 25.2177Z" fill="#E67C00"/>
<path d="M25.0001 16.7268C24.3681 16.7268 23.854 17.2175 23.854 17.8207V18.5463C23.4765 18.5842 23.1812 18.8898 23.1812 19.26V20.8475C23.1812 21.2433 23.5185 21.5653 23.9331 21.5653H26.067C26.4816 21.5653 26.819 21.2433 26.819 20.8475V19.26C26.819 18.8897 26.5237 18.5842 26.1461 18.5463V17.8207C26.1461 17.2175 25.632 16.7268 25.0001 16.7268ZM24.4986 17.8207C24.4986 17.2219 25.5016 17.1945 25.5016 17.8207V18.5422H24.4986V17.8207ZM26.1744 20.8475C26.1744 20.904 26.1262 20.9501 26.067 20.9501H23.9331C23.8739 20.9501 23.8257 20.904 23.8257 20.8475V19.26C23.8257 19.2035 23.8739 19.1575 23.9331 19.1575H26.067C26.1262 19.1575 26.1744 19.2035 26.1744 19.26V20.8475Z" fill="#E67C00"/>
<path d="M31.1165 26.9854C31.1165 26.8155 30.9722 26.6778 30.7942 26.6778H19.2056C18.7889 26.6778 18.7889 27.293 19.2056 27.293H30.7942C30.9722 27.293 31.1165 27.1553 31.1165 26.9854Z" fill="#E67C00"/>
<path d="M25 19.7462C24.5853 19.7462 24.5846 20.3614 25 20.3614C25.4148 20.3614 25.4154 19.7462 25 19.7462Z" fill="#E67C00"/>
</svg>
