<svg width="50" height="50" viewBox="0 0 50 50" fill="none" xmlns="http://www.w3.org/2000/svg">
<circle cx="25" cy="25" r="25" fill="#C3CEFF"/>
<path d="M12.52 18.4762C12.6579 18.4762 12.7902 18.4185 12.8877 18.3158C12.9852 18.2131 13.04 18.0738 13.04 17.9286V14.6429C13.04 14.4976 13.0948 14.3583 13.1923 14.2556C13.2898 14.1529 13.4221 14.0952 13.56 14.0952H16.68C16.8179 14.0952 16.9502 14.0375 17.0477 13.9348C17.1452 13.8321 17.2 13.6929 17.2 13.5476C17.2 13.4024 17.1452 13.2631 17.0477 13.1604C16.9502 13.0577 16.8179 13 16.68 13H13.56C13.1463 13 12.7495 13.1731 12.4569 13.4812C12.1644 13.7893 12 14.2071 12 14.6429V17.9286C12 18.0738 12.0548 18.2131 12.1523 18.3158C12.2498 18.4185 12.3821 18.4762 12.52 18.4762Z" fill="#01115D"/>
<path d="M16.68 34.9047H13.56C13.4221 34.9047 13.2898 34.8471 13.1923 34.7444C13.0948 34.6417 13.04 34.5024 13.04 34.3571V31.0714C13.04 30.9262 12.9852 30.7869 12.8877 30.6842C12.7902 30.5815 12.6579 30.5238 12.52 30.5238C12.3821 30.5238 12.2498 30.5815 12.1523 30.6842C12.0548 30.7869 12 30.9262 12 31.0714V34.3571C12 34.7928 12.1644 35.2107 12.4569 35.5188C12.7495 35.8269 13.1463 36 13.56 36H16.68C16.8179 36 16.9502 35.9423 17.0477 35.8396C17.1452 35.7369 17.2 35.5976 17.2 35.4524C17.2 35.3071 17.1452 35.1678 17.0477 35.0651C16.9502 34.9624 16.8179 34.9047 16.68 34.9047Z" fill="#01115D"/>
<path d="M37.48 30.5238C37.3421 30.5238 37.2099 30.5815 37.1123 30.6842C37.0148 30.7869 36.96 30.9262 36.96 31.0714V34.3571C36.96 34.5024 36.9053 34.6417 36.8077 34.7444C36.7102 34.8471 36.578 34.9047 36.44 34.9047H33.32C33.1821 34.9047 33.0499 34.9624 32.9524 35.0651C32.8548 35.1678 32.8 35.3071 32.8 35.4524C32.8 35.5976 32.8548 35.7369 32.9524 35.8396C33.0499 35.9423 33.1821 36 33.32 36H36.44C36.8538 36 37.2506 35.8269 37.5431 35.5188C37.8357 35.2107 38 34.7928 38 34.3571V31.0714C38 30.9262 37.9452 30.7869 37.8477 30.6842C37.7502 30.5815 37.6179 30.5238 37.48 30.5238Z" fill="#01115D"/>
<path d="M36.44 13H33.32C33.1821 13 33.0499 13.0577 32.9524 13.1604C32.8548 13.2631 32.8 13.4024 32.8 13.5476C32.8 13.6929 32.8548 13.8321 32.9524 13.9348C33.0499 14.0375 33.1821 14.0952 33.32 14.0952H36.44C36.578 14.0952 36.7102 14.1529 36.8077 14.2556C36.9053 14.3583 36.96 14.4976 36.96 14.6429V17.9286C36.96 18.0738 37.0148 18.2131 37.1123 18.3158C37.2099 18.4185 37.3421 18.4762 37.48 18.4762C37.6179 18.4762 37.7502 18.4185 37.8477 18.3158C37.9452 18.2131 38 18.0738 38 17.9286V14.6429C38 14.2071 37.8357 13.7893 37.5431 13.4812C37.2506 13.1731 36.8538 13 36.44 13Z" fill="#01115D"/>
<rect x="20" y="20" width="10" height="10" fill="#01115D"/>
</svg>
