<svg width="474" height="663" viewBox="0 0 474 663" fill="none" xmlns="http://www.w3.org/2000/svg">
<g filter="url(#filter0_d)">
<path d="M378.224 642.122L469.545 91.7696C470.901 83.5971 465.429 75.5854 457.323 73.8751L121.883 3.0969C113.777 1.38657 106.107 6.62523 104.751 14.7978L13.4301 565.15C12.074 573.322 17.5458 581.334 25.6516 583.044L361.092 653.822C369.197 655.533 376.868 650.294 378.224 642.122Z" fill="#CFCCE0"/>
</g>
<path d="M375.521 637.79L371.299 167.825C371.224 159.541 364.449 152.902 356.165 152.996L14.9991 156.866C6.71534 156.96 0.0603778 163.752 0.1348 172.036L4.35695 642.001C4.43137 650.285 11.207 656.924 19.4907 656.83L360.656 652.96C368.94 652.866 375.595 646.074 375.521 637.79Z" fill="#01115D"/>
<ellipse cx="187.5" cy="302" rx="65.5" ry="63" fill="#E5EAFF"/>
<circle cx="64.5" cy="410.5" r="6.5" fill="#E5EAFF"/>
<path d="M88.68 403.8H90.28V415H88.68V403.8ZM98.1771 414.504C97.9531 414.696 97.6758 414.846 97.3451 414.952C97.0145 415.048 96.6731 415.096 96.3211 415.096C95.4678 415.096 94.8065 414.867 94.3371 414.408C93.8678 413.95 93.6331 413.294 93.6331 412.44V407.784H92.1931V406.52H93.6331V404.664H95.1691V406.52H97.6011V407.784H95.1691V412.376C95.1691 412.835 95.2811 413.187 95.5051 413.432C95.7398 413.678 96.0705 413.8 96.4971 413.8C96.9665 413.8 97.3665 413.667 97.6971 413.4L98.1771 414.504ZM104.331 406.52H105.867V415H104.331V406.52ZM105.099 404.888C104.8 404.888 104.55 404.792 104.347 404.6C104.155 404.408 104.059 404.174 104.059 403.896C104.059 403.619 104.155 403.384 104.347 403.192C104.55 402.99 104.8 402.888 105.099 402.888C105.398 402.888 105.643 402.984 105.835 403.176C106.038 403.358 106.139 403.587 106.139 403.864C106.139 404.152 106.038 404.398 105.835 404.6C105.643 404.792 105.398 404.888 105.099 404.888ZM111.232 415.096C110.538 415.096 109.872 415.006 109.232 414.824C108.592 414.632 108.09 414.392 107.728 414.104L108.368 412.888C108.741 413.155 109.194 413.368 109.728 413.528C110.261 413.688 110.8 413.768 111.344 413.768C112.688 413.768 113.36 413.384 113.36 412.616C113.36 412.36 113.269 412.158 113.088 412.008C112.906 411.859 112.677 411.752 112.4 411.688C112.133 411.614 111.749 411.534 111.248 411.448C110.565 411.342 110.005 411.219 109.568 411.08C109.141 410.942 108.773 410.707 108.464 410.376C108.154 410.046 108 409.582 108 408.984C108 408.216 108.32 407.603 108.96 407.144C109.6 406.675 110.458 406.44 111.536 406.44C112.101 406.44 112.666 406.51 113.232 406.648C113.797 406.787 114.261 406.974 114.624 407.208L113.968 408.424C113.274 407.976 112.458 407.752 111.52 407.752C110.869 407.752 110.373 407.859 110.032 408.072C109.69 408.286 109.52 408.568 109.52 408.92C109.52 409.198 109.616 409.416 109.808 409.576C110 409.736 110.234 409.854 110.512 409.928C110.8 410.003 111.2 410.088 111.712 410.184C112.394 410.302 112.944 410.43 113.36 410.568C113.786 410.696 114.149 410.92 114.448 411.24C114.746 411.56 114.896 412.008 114.896 412.584C114.896 413.352 114.565 413.966 113.904 414.424C113.253 414.872 112.362 415.096 111.232 415.096Z" fill="#EEEEEE"/>
<path d="M122.936 405.192V409.096H128.552V410.472H122.936V415H121.336V403.8H129.24V405.192H122.936ZM138.981 415L136.565 411.56C136.266 411.582 136.031 411.592 135.861 411.592H133.093V415H131.493V403.8H135.861C137.311 403.8 138.453 404.147 139.285 404.84C140.117 405.534 140.533 406.488 140.533 407.704C140.533 408.568 140.319 409.304 139.893 409.912C139.466 410.52 138.858 410.963 138.069 411.24L140.725 415H138.981ZM135.813 410.232C136.826 410.232 137.599 410.014 138.133 409.576C138.666 409.139 138.933 408.515 138.933 407.704C138.933 406.894 138.666 406.275 138.133 405.848C137.599 405.411 136.826 405.192 135.813 405.192H133.093V410.232H135.813ZM151.246 413.608V415H143.118V403.8H151.022V405.192H144.718V408.632H150.334V409.992H144.718V413.608H151.246ZM161.964 413.608V415H153.836V403.8H161.74V405.192H155.436V408.632H161.052V409.992H155.436V413.608H161.964Z" fill="#F9A825"/>
<circle cx="64.5" cy="524.5" r="6.5" fill="#E5EAFF"/>
<path d="M92.328 524.024L90.28 526.104V529H88.68V517.8H90.28V524.056L96.36 517.8H98.184L93.4 522.84L98.488 529H96.616L92.328 524.024ZM104.328 520.44C105.405 520.44 106.258 520.755 106.888 521.384C107.528 522.003 107.848 522.915 107.848 524.12V529H106.312V524.296C106.312 523.475 106.114 522.856 105.72 522.44C105.325 522.024 104.76 521.816 104.024 521.816C103.192 521.816 102.536 522.061 102.056 522.552C101.576 523.032 101.336 523.725 101.336 524.632V529H99.7998V520.52H101.272V521.8C101.581 521.363 101.997 521.027 102.52 520.792C103.053 520.557 103.656 520.44 104.328 520.44ZM114.369 529.096C113.527 529.096 112.769 528.909 112.097 528.536C111.425 528.163 110.897 527.651 110.513 527C110.14 526.339 109.953 525.592 109.953 524.76C109.953 523.928 110.14 523.187 110.513 522.536C110.897 521.875 111.425 521.363 112.097 521C112.769 520.627 113.527 520.44 114.369 520.44C115.212 520.44 115.964 520.627 116.625 521C117.297 521.363 117.82 521.875 118.193 522.536C118.577 523.187 118.769 523.928 118.769 524.76C118.769 525.592 118.577 526.339 118.193 527C117.82 527.651 117.297 528.163 116.625 528.536C115.964 528.909 115.212 529.096 114.369 529.096ZM114.369 527.752C114.913 527.752 115.399 527.629 115.825 527.384C116.263 527.128 116.604 526.776 116.849 526.328C117.095 525.869 117.217 525.347 117.217 524.76C117.217 524.173 117.095 523.656 116.849 523.208C116.604 522.749 116.263 522.397 115.825 522.152C115.399 521.907 114.913 521.784 114.369 521.784C113.825 521.784 113.335 521.907 112.897 522.152C112.471 522.397 112.129 522.749 111.873 523.208C111.628 523.656 111.505 524.173 111.505 524.76C111.505 525.347 111.628 525.869 111.873 526.328C112.129 526.776 112.471 527.128 112.897 527.384C113.335 527.629 113.825 527.752 114.369 527.752ZM133.491 520.52L130.323 529H128.851L126.403 522.568L123.923 529H122.451L119.299 520.52H120.755L123.219 527.272L125.779 520.52H127.075L129.587 527.304L132.115 520.52H133.491ZM152.179 520.52L149.011 529H147.539L145.091 522.568L142.611 529H141.139L137.987 520.52H139.443L141.907 527.272L144.467 520.52H145.763L148.275 527.304L150.803 520.52H152.179ZM158.265 520.44C159.343 520.44 160.196 520.755 160.825 521.384C161.465 522.003 161.785 522.915 161.785 524.12V529H160.249V524.296C160.249 523.475 160.052 522.856 159.657 522.44C159.263 522.024 158.697 521.816 157.961 521.816C157.129 521.816 156.473 522.061 155.993 522.552C155.513 523.032 155.273 523.725 155.273 524.632V529H153.737V517.128H155.273V521.72C155.593 521.315 156.009 521 156.521 520.776C157.044 520.552 157.625 520.44 158.265 520.44ZM167.716 520.44C168.889 520.44 169.785 520.728 170.404 521.304C171.033 521.88 171.348 522.739 171.348 523.88V529H169.892V527.88C169.636 528.275 169.268 528.579 168.788 528.792C168.319 528.995 167.759 529.096 167.108 529.096C166.159 529.096 165.396 528.867 164.82 528.408C164.255 527.949 163.972 527.347 163.972 526.6C163.972 525.853 164.244 525.256 164.788 524.808C165.332 524.349 166.196 524.12 167.38 524.12H169.812V523.816C169.812 523.155 169.62 522.648 169.236 522.296C168.852 521.944 168.287 521.768 167.54 521.768C167.039 521.768 166.548 521.853 166.068 522.024C165.588 522.184 165.183 522.403 164.852 522.68L164.212 521.528C164.649 521.176 165.172 520.909 165.78 520.728C166.388 520.536 167.033 520.44 167.716 520.44ZM167.364 527.912C167.951 527.912 168.457 527.784 168.884 527.528C169.311 527.261 169.62 526.888 169.812 526.408V525.224H167.444C166.143 525.224 165.492 525.661 165.492 526.536C165.492 526.963 165.657 527.299 165.988 527.544C166.319 527.789 166.777 527.912 167.364 527.912ZM178.958 528.504C178.734 528.696 178.457 528.845 178.126 528.952C177.796 529.048 177.454 529.096 177.102 529.096C176.249 529.096 175.588 528.867 175.118 528.408C174.649 527.949 174.414 527.293 174.414 526.44V521.784H172.974V520.52H174.414V518.664H175.95V520.52H178.382V521.784H175.95V526.376C175.95 526.835 176.062 527.187 176.286 527.432C176.521 527.677 176.852 527.8 177.278 527.8C177.748 527.8 178.148 527.667 178.478 527.4L178.958 528.504ZM192.616 520.52L188.504 529.848C188.142 530.712 187.715 531.32 187.224 531.672C186.744 532.024 186.163 532.2 185.48 532.2C185.064 532.2 184.659 532.131 184.264 531.992C183.88 531.864 183.56 531.672 183.304 531.416L183.96 530.264C184.398 530.68 184.904 530.888 185.48 530.888C185.854 530.888 186.163 530.787 186.408 530.584C186.664 530.392 186.894 530.056 187.096 529.576L187.368 528.984L183.624 520.52H185.224L188.184 527.304L191.112 520.52H192.616ZM197.447 529.096C196.605 529.096 195.847 528.909 195.175 528.536C194.503 528.163 193.975 527.651 193.591 527C193.218 526.339 193.031 525.592 193.031 524.76C193.031 523.928 193.218 523.187 193.591 522.536C193.975 521.875 194.503 521.363 195.175 521C195.847 520.627 196.605 520.44 197.447 520.44C198.29 520.44 199.042 520.627 199.703 521C200.375 521.363 200.898 521.875 201.271 522.536C201.655 523.187 201.847 523.928 201.847 524.76C201.847 525.592 201.655 526.339 201.271 527C200.898 527.651 200.375 528.163 199.703 528.536C199.042 528.909 198.29 529.096 197.447 529.096ZM197.447 527.752C197.991 527.752 198.477 527.629 198.903 527.384C199.341 527.128 199.682 526.776 199.927 526.328C200.173 525.869 200.295 525.347 200.295 524.76C200.295 524.173 200.173 523.656 199.927 523.208C199.682 522.749 199.341 522.397 198.903 522.152C198.477 521.907 197.991 521.784 197.447 521.784C196.903 521.784 196.413 521.907 195.975 522.152C195.549 522.397 195.207 522.749 194.951 523.208C194.706 523.656 194.583 524.173 194.583 524.76C194.583 525.347 194.706 525.869 194.951 526.328C195.207 526.776 195.549 527.128 195.975 527.384C196.413 527.629 196.903 527.752 197.447 527.752ZM211.876 520.52V529H210.42V527.72C210.11 528.157 209.7 528.499 209.188 528.744C208.686 528.979 208.137 529.096 207.54 529.096C206.409 529.096 205.518 528.787 204.868 528.168C204.217 527.539 203.892 526.616 203.892 525.4V520.52H205.428V525.224C205.428 526.045 205.625 526.669 206.02 527.096C206.414 527.512 206.98 527.72 207.716 527.72C208.526 527.72 209.166 527.475 209.636 526.984C210.105 526.493 210.34 525.8 210.34 524.904V520.52H211.876ZM222.793 529.096C221.929 529.096 221.155 528.909 220.473 528.536C219.801 528.163 219.273 527.651 218.889 527C218.505 526.339 218.313 525.592 218.313 524.76C218.313 523.928 218.505 523.187 218.889 522.536C219.273 521.875 219.801 521.363 220.473 521C221.155 520.627 221.929 520.44 222.793 520.44C223.561 520.44 224.243 520.595 224.841 520.904C225.449 521.213 225.918 521.661 226.249 522.248L225.081 523C224.814 522.595 224.483 522.291 224.089 522.088C223.694 521.885 223.257 521.784 222.777 521.784C222.222 521.784 221.721 521.907 221.273 522.152C220.835 522.397 220.489 522.749 220.233 523.208C219.987 523.656 219.865 524.173 219.865 524.76C219.865 525.357 219.987 525.885 220.233 526.344C220.489 526.792 220.835 527.139 221.273 527.384C221.721 527.629 222.222 527.752 222.777 527.752C223.257 527.752 223.694 527.651 224.089 527.448C224.483 527.245 224.814 526.941 225.081 526.536L226.249 527.272C225.918 527.859 225.449 528.312 224.841 528.632C224.243 528.941 223.561 529.096 222.793 529.096ZM231.325 520.44C232.499 520.44 233.395 520.728 234.013 521.304C234.643 521.88 234.957 522.739 234.957 523.88V529H233.501V527.88C233.245 528.275 232.877 528.579 232.397 528.792C231.928 528.995 231.368 529.096 230.717 529.096C229.768 529.096 229.005 528.867 228.429 528.408C227.864 527.949 227.581 527.347 227.581 526.6C227.581 525.853 227.853 525.256 228.397 524.808C228.941 524.349 229.805 524.12 230.989 524.12H233.421V523.816C233.421 523.155 233.229 522.648 232.845 522.296C232.461 521.944 231.896 521.768 231.149 521.768C230.648 521.768 230.157 521.853 229.677 522.024C229.197 522.184 228.792 522.403 228.461 522.68L227.821 521.528C228.259 521.176 228.781 520.909 229.389 520.728C229.997 520.536 230.643 520.44 231.325 520.44ZM230.973 527.912C231.56 527.912 232.067 527.784 232.493 527.528C232.92 527.261 233.229 526.888 233.421 526.408V525.224H231.053C229.752 525.224 229.101 525.661 229.101 526.536C229.101 526.963 229.267 527.299 229.597 527.544C229.928 527.789 230.387 527.912 230.973 527.912ZM242.328 520.44C243.405 520.44 244.258 520.755 244.888 521.384C245.528 522.003 245.848 522.915 245.848 524.12V529H244.312V524.296C244.312 523.475 244.114 522.856 243.72 522.44C243.325 522.024 242.76 521.816 242.024 521.816C241.192 521.816 240.536 522.061 240.056 522.552C239.576 523.032 239.336 523.725 239.336 524.632V529H237.8V520.52H239.272V521.8C239.581 521.363 239.997 521.027 240.52 520.792C241.053 520.557 241.656 520.44 242.328 520.44ZM256.075 520.44C257.249 520.44 258.145 520.728 258.763 521.304C259.393 521.88 259.707 522.739 259.707 523.88V529H258.251V527.88C257.995 528.275 257.627 528.579 257.147 528.792C256.678 528.995 256.118 529.096 255.467 529.096C254.518 529.096 253.755 528.867 253.179 528.408C252.614 527.949 252.331 527.347 252.331 526.6C252.331 525.853 252.603 525.256 253.147 524.808C253.691 524.349 254.555 524.12 255.739 524.12H258.171V523.816C258.171 523.155 257.979 522.648 257.595 522.296C257.211 521.944 256.646 521.768 255.899 521.768C255.398 521.768 254.907 521.853 254.427 522.024C253.947 522.184 253.542 522.403 253.211 522.68L252.571 521.528C253.009 521.176 253.531 520.909 254.139 520.728C254.747 520.536 255.393 520.44 256.075 520.44ZM255.723 527.912C256.31 527.912 256.817 527.784 257.243 527.528C257.67 527.261 257.979 526.888 258.171 526.408V525.224H255.803C254.502 525.224 253.851 525.661 253.851 526.536C253.851 526.963 254.017 527.299 254.347 527.544C254.678 527.789 255.137 527.912 255.723 527.912ZM266.293 529.096C265.429 529.096 264.655 528.909 263.973 528.536C263.301 528.163 262.773 527.651 262.389 527C262.005 526.339 261.813 525.592 261.813 524.76C261.813 523.928 262.005 523.187 262.389 522.536C262.773 521.875 263.301 521.363 263.973 521C264.655 520.627 265.429 520.44 266.293 520.44C267.061 520.44 267.743 520.595 268.341 520.904C268.949 521.213 269.418 521.661 269.749 522.248L268.581 523C268.314 522.595 267.983 522.291 267.589 522.088C267.194 521.885 266.757 521.784 266.277 521.784C265.722 521.784 265.221 521.907 264.773 522.152C264.335 522.397 263.989 522.749 263.733 523.208C263.487 523.656 263.365 524.173 263.365 524.76C263.365 525.357 263.487 525.885 263.733 526.344C263.989 526.792 264.335 527.139 264.773 527.384C265.221 527.629 265.722 527.752 266.277 527.752C266.757 527.752 267.194 527.651 267.589 527.448C267.983 527.245 268.314 526.941 268.581 526.536L269.749 527.272C269.418 527.859 268.949 528.312 268.341 528.632C267.743 528.941 267.061 529.096 266.293 529.096ZM276.615 528.504C276.391 528.696 276.113 528.845 275.783 528.952C275.452 529.048 275.111 529.096 274.759 529.096C273.905 529.096 273.244 528.867 272.775 528.408C272.305 527.949 272.071 527.293 272.071 526.44V521.784H270.631V520.52H272.071V518.664H273.607V520.52H276.039V521.784H273.607V526.376C273.607 526.835 273.719 527.187 273.943 527.432C274.177 527.677 274.508 527.8 274.935 527.8C275.404 527.8 275.804 527.667 276.135 527.4L276.615 528.504ZM286.376 520.52V529H284.92V527.72C284.61 528.157 284.2 528.499 283.688 528.744C283.186 528.979 282.637 529.096 282.04 529.096C280.909 529.096 280.018 528.787 279.368 528.168C278.717 527.539 278.392 526.616 278.392 525.4V520.52H279.928V525.224C279.928 526.045 280.125 526.669 280.52 527.096C280.914 527.512 281.48 527.72 282.216 527.72C283.026 527.72 283.666 527.475 284.136 526.984C284.605 526.493 284.84 525.8 284.84 524.904V520.52H286.376ZM292.388 520.44C293.561 520.44 294.457 520.728 295.076 521.304C295.705 521.88 296.02 522.739 296.02 523.88V529H294.564V527.88C294.308 528.275 293.94 528.579 293.46 528.792C292.99 528.995 292.43 529.096 291.78 529.096C290.83 529.096 290.068 528.867 289.492 528.408C288.926 527.949 288.644 527.347 288.644 526.6C288.644 525.853 288.916 525.256 289.46 524.808C290.004 524.349 290.868 524.12 292.052 524.12H294.484V523.816C294.484 523.155 294.292 522.648 293.908 522.296C293.524 521.944 292.958 521.768 292.212 521.768C291.71 521.768 291.22 521.853 290.74 522.024C290.26 522.184 289.854 522.403 289.524 522.68L288.884 521.528C289.321 521.176 289.844 520.909 290.452 520.728C291.06 520.536 291.705 520.44 292.388 520.44ZM292.036 527.912C292.622 527.912 293.129 527.784 293.556 527.528C293.982 527.261 294.292 526.888 294.484 526.408V525.224H292.116C290.814 525.224 290.164 525.661 290.164 526.536C290.164 526.963 290.329 527.299 290.66 527.544C290.99 527.789 291.449 527.912 292.036 527.912ZM298.862 517.128H300.398V529H298.862V517.128ZM303.331 517.128H304.867V529H303.331V517.128ZM315.304 520.52L311.192 529.848C310.829 530.712 310.402 531.32 309.912 531.672C309.432 532.024 308.85 532.2 308.168 532.2C307.752 532.2 307.346 532.131 306.952 531.992C306.568 531.864 306.248 531.672 305.992 531.416L306.648 530.264C307.085 530.68 307.592 530.888 308.168 530.888C308.541 530.888 308.85 530.787 309.096 530.584C309.352 530.392 309.581 530.056 309.784 529.576L310.056 528.984L306.312 520.52H307.912L310.872 527.304L313.8 520.52H315.304ZM92.152 553.096C91.288 553.096 90.5147 552.909 89.832 552.536C89.16 552.163 88.632 551.651 88.248 551C87.864 550.339 87.672 549.592 87.672 548.76C87.672 547.928 87.864 547.187 88.248 546.536C88.632 545.875 89.16 545.363 89.832 545C90.5147 544.627 91.288 544.44 92.152 544.44C92.92 544.44 93.6027 544.595 94.2 544.904C94.808 545.213 95.2773 545.661 95.608 546.248L94.44 547C94.1733 546.595 93.8427 546.291 93.448 546.088C93.0533 545.885 92.616 545.784 92.136 545.784C91.5813 545.784 91.08 545.907 90.632 546.152C90.1947 546.397 89.848 546.749 89.592 547.208C89.3467 547.656 89.224 548.173 89.224 548.76C89.224 549.357 89.3467 549.885 89.592 550.344C89.848 550.792 90.1947 551.139 90.632 551.384C91.08 551.629 91.5813 551.752 92.136 551.752C92.616 551.752 93.0533 551.651 93.448 551.448C93.8427 551.245 94.1733 550.941 94.44 550.536L95.608 551.272C95.2773 551.859 94.808 552.312 94.2 552.632C93.6027 552.941 92.92 553.096 92.152 553.096ZM101.104 553.096C100.261 553.096 99.5036 552.909 98.8316 552.536C98.1596 552.163 97.6316 551.651 97.2476 551C96.8743 550.339 96.6876 549.592 96.6876 548.76C96.6876 547.928 96.8743 547.187 97.2476 546.536C97.6316 545.875 98.1596 545.363 98.8316 545C99.5036 544.627 100.261 544.44 101.104 544.44C101.946 544.44 102.698 544.627 103.36 545C104.032 545.363 104.554 545.875 104.928 546.536C105.312 547.187 105.504 547.928 105.504 548.76C105.504 549.592 105.312 550.339 104.928 551C104.554 551.651 104.032 552.163 103.36 552.536C102.698 552.909 101.946 553.096 101.104 553.096ZM101.104 551.752C101.648 551.752 102.133 551.629 102.56 551.384C102.997 551.128 103.338 550.776 103.584 550.328C103.829 549.869 103.952 549.347 103.952 548.76C103.952 548.173 103.829 547.656 103.584 547.208C103.338 546.749 102.997 546.397 102.56 546.152C102.133 545.907 101.648 545.784 101.104 545.784C100.56 545.784 100.069 545.907 99.6316 546.152C99.205 546.397 98.8636 546.749 98.6076 547.208C98.3623 547.656 98.2396 548.173 98.2396 548.76C98.2396 549.347 98.3623 549.869 98.6076 550.328C98.8636 550.776 99.205 551.128 99.6316 551.384C100.069 551.629 100.56 551.752 101.104 551.752ZM112.156 544.44C113.233 544.44 114.087 544.755 114.716 545.384C115.356 546.003 115.676 546.915 115.676 548.12V553H114.14V548.296C114.14 547.475 113.943 546.856 113.548 546.44C113.153 546.024 112.588 545.816 111.852 545.816C111.02 545.816 110.364 546.061 109.884 546.552C109.404 547.032 109.164 547.725 109.164 548.632V553H107.628V544.52H109.1V545.8C109.409 545.363 109.825 545.027 110.348 544.792C110.881 544.557 111.484 544.44 112.156 544.44ZM120.951 553.096C120.257 553.096 119.591 553.005 118.951 552.824C118.311 552.632 117.809 552.392 117.447 552.104L118.087 550.888C118.46 551.155 118.913 551.368 119.447 551.528C119.98 551.688 120.519 551.768 121.062 551.768C122.407 551.768 123.079 551.384 123.079 550.616C123.079 550.36 122.988 550.157 122.807 550.008C122.625 549.859 122.396 549.752 122.119 549.688C121.852 549.613 121.468 549.533 120.967 549.448C120.284 549.341 119.724 549.219 119.287 549.08C118.86 548.941 118.492 548.707 118.183 548.376C117.873 548.045 117.719 547.581 117.719 546.984C117.719 546.216 118.039 545.603 118.679 545.144C119.319 544.675 120.177 544.44 121.255 544.44C121.82 544.44 122.385 544.509 122.951 544.648C123.516 544.787 123.98 544.973 124.343 545.208L123.687 546.424C122.993 545.976 122.177 545.752 121.239 545.752C120.588 545.752 120.092 545.859 119.751 546.072C119.409 546.285 119.239 546.568 119.239 546.92C119.239 547.197 119.335 547.416 119.527 547.576C119.719 547.736 119.953 547.853 120.231 547.928C120.519 548.003 120.919 548.088 121.431 548.184C122.113 548.301 122.663 548.429 123.079 548.568C123.505 548.696 123.868 548.92 124.167 549.24C124.465 549.56 124.615 550.008 124.615 550.584C124.615 551.352 124.284 551.965 123.623 552.424C122.972 552.872 122.081 553.096 120.951 553.096ZM134.438 544.52V553H132.982V551.72C132.673 552.157 132.262 552.499 131.75 552.744C131.249 552.979 130.699 553.096 130.102 553.096C128.971 553.096 128.081 552.787 127.43 552.168C126.779 551.539 126.454 550.616 126.454 549.4V544.52H127.99V549.224C127.99 550.045 128.187 550.669 128.582 551.096C128.977 551.512 129.542 551.72 130.278 551.72C131.089 551.72 131.729 551.475 132.198 550.984C132.667 550.493 132.902 549.8 132.902 548.904V544.52H134.438ZM147.97 544.44C149.037 544.44 149.88 544.749 150.498 545.368C151.128 545.987 151.442 546.904 151.442 548.12V553H149.906V548.296C149.906 547.475 149.714 546.856 149.33 546.44C148.957 546.024 148.418 545.816 147.714 545.816C146.936 545.816 146.317 546.061 145.858 546.552C145.4 547.032 145.17 547.725 145.17 548.632V553H143.634V548.296C143.634 547.475 143.442 546.856 143.058 546.44C142.685 546.024 142.146 545.816 141.442 545.816C140.664 545.816 140.045 546.061 139.586 546.552C139.128 547.032 138.898 547.725 138.898 548.632V553H137.362V544.52H138.834V545.784C139.144 545.347 139.549 545.016 140.05 544.792C140.552 544.557 141.122 544.44 141.762 544.44C142.424 544.44 143.01 544.573 143.522 544.84C144.034 545.107 144.429 545.496 144.706 546.008C145.026 545.517 145.469 545.133 146.034 544.856C146.61 544.579 147.256 544.44 147.97 544.44ZM161.979 548.808C161.979 548.925 161.969 549.08 161.947 549.272H155.067C155.163 550.019 155.489 550.621 156.043 551.08C156.609 551.528 157.307 551.752 158.139 551.752C159.153 551.752 159.969 551.411 160.587 550.728L161.435 551.72C161.051 552.168 160.571 552.509 159.995 552.744C159.43 552.979 158.795 553.096 158.091 553.096C157.195 553.096 156.401 552.915 155.707 552.552C155.014 552.179 154.475 551.661 154.091 551C153.718 550.339 153.531 549.592 153.531 548.76C153.531 547.939 153.713 547.197 154.075 546.536C154.449 545.875 154.955 545.363 155.595 545C156.246 544.627 156.977 544.44 157.787 544.44C158.598 544.44 159.318 544.627 159.947 545C160.587 545.363 161.083 545.875 161.435 546.536C161.798 547.197 161.979 547.955 161.979 548.808ZM157.787 545.736C157.051 545.736 156.433 545.96 155.931 546.408C155.441 546.856 155.153 547.443 155.067 548.168H160.507C160.422 547.453 160.129 546.872 159.627 546.424C159.137 545.965 158.523 545.736 157.787 545.736Z" fill="#EEEEEE"/>
<circle cx="64.5" cy="461.5" r="6.5" fill="#E5EAFF"/>
<path d="M99.064 466L99.048 457.84L95 464.64H94.264L90.216 457.888V466H88.68V454.8H89.992L94.664 462.672L99.272 454.8H100.584L100.6 466H99.064ZM106.825 457.44C107.999 457.44 108.895 457.728 109.513 458.304C110.143 458.88 110.457 459.739 110.457 460.88V466H109.001V464.88C108.745 465.275 108.377 465.579 107.897 465.792C107.428 465.995 106.868 466.096 106.217 466.096C105.268 466.096 104.505 465.867 103.929 465.408C103.364 464.949 103.081 464.347 103.081 463.6C103.081 462.853 103.353 462.256 103.897 461.808C104.441 461.349 105.305 461.12 106.489 461.12H108.921V460.816C108.921 460.155 108.729 459.648 108.345 459.296C107.961 458.944 107.396 458.768 106.649 458.768C106.148 458.768 105.657 458.853 105.177 459.024C104.697 459.184 104.292 459.403 103.961 459.68L103.321 458.528C103.759 458.176 104.281 457.909 104.889 457.728C105.497 457.536 106.143 457.44 106.825 457.44ZM106.473 464.912C107.06 464.912 107.567 464.784 107.993 464.528C108.42 464.261 108.729 463.888 108.921 463.408V462.224H106.553C105.252 462.224 104.601 462.661 104.601 463.536C104.601 463.963 104.767 464.299 105.097 464.544C105.428 464.789 105.887 464.912 106.473 464.912ZM116.596 462.048L114.836 463.68V466H113.3V454.128H114.836V461.744L119.46 457.52H121.316L117.748 461.024L121.668 466H119.78L116.596 462.048ZM130.464 461.808C130.464 461.925 130.453 462.08 130.432 462.272H123.552C123.648 463.019 123.973 463.621 124.528 464.08C125.093 464.528 125.792 464.752 126.624 464.752C127.637 464.752 128.453 464.411 129.072 463.728L129.92 464.72C129.536 465.168 129.056 465.509 128.48 465.744C127.914 465.979 127.28 466.096 126.576 466.096C125.68 466.096 124.885 465.915 124.192 465.552C123.498 465.179 122.96 464.661 122.576 464C122.202 463.339 122.016 462.592 122.016 461.76C122.016 460.939 122.197 460.197 122.56 459.536C122.933 458.875 123.44 458.363 124.08 458C124.73 457.627 125.461 457.44 126.272 457.44C127.082 457.44 127.802 457.627 128.432 458C129.072 458.363 129.568 458.875 129.92 459.536C130.282 460.197 130.464 460.955 130.464 461.808ZM126.272 458.736C125.536 458.736 124.917 458.96 124.416 459.408C123.925 459.856 123.637 460.443 123.552 461.168H128.992C128.906 460.453 128.613 459.872 128.112 459.424C127.621 458.965 127.008 458.736 126.272 458.736ZM141.39 457.44C142.211 457.44 142.947 457.621 143.598 457.984C144.248 458.347 144.755 458.853 145.118 459.504C145.491 460.155 145.678 460.907 145.678 461.76C145.678 462.613 145.491 463.371 145.118 464.032C144.755 464.683 144.248 465.189 143.598 465.552C142.947 465.915 142.211 466.096 141.39 466.096C140.76 466.096 140.184 465.973 139.661 465.728C139.139 465.483 138.707 465.125 138.366 464.656V466H136.894V454.128H138.43V458.8C138.771 458.352 139.198 458.016 139.71 457.792C140.222 457.557 140.782 457.44 141.39 457.44ZM141.262 464.752C141.806 464.752 142.291 464.629 142.718 464.384C143.155 464.128 143.496 463.776 143.742 463.328C143.998 462.869 144.126 462.347 144.126 461.76C144.126 461.173 143.998 460.656 143.742 460.208C143.496 459.749 143.155 459.397 142.718 459.152C142.291 458.907 141.806 458.784 141.262 458.784C140.728 458.784 140.243 458.907 139.806 459.152C139.368 459.397 139.027 459.749 138.782 460.208C138.536 460.656 138.414 461.173 138.414 461.76C138.414 462.347 138.536 462.869 138.782 463.328C139.027 463.776 139.368 464.128 139.806 464.384C140.243 464.629 140.728 464.752 141.262 464.752ZM155.464 461.808C155.464 461.925 155.453 462.08 155.432 462.272H148.552C148.648 463.019 148.973 463.621 149.528 464.08C150.093 464.528 150.792 464.752 151.624 464.752C152.637 464.752 153.453 464.411 154.072 463.728L154.92 464.72C154.536 465.168 154.056 465.509 153.48 465.744C152.914 465.979 152.28 466.096 151.576 466.096C150.68 466.096 149.885 465.915 149.192 465.552C148.498 465.179 147.96 464.661 147.576 464C147.202 463.339 147.016 462.592 147.016 461.76C147.016 460.939 147.197 460.197 147.56 459.536C147.933 458.875 148.44 458.363 149.08 458C149.73 457.627 150.461 457.44 151.272 457.44C152.082 457.44 152.802 457.627 153.432 458C154.072 458.363 154.568 458.875 154.92 459.536C155.282 460.197 155.464 460.955 155.464 461.808ZM151.272 458.736C150.536 458.736 149.917 458.96 149.416 459.408C148.925 459.856 148.637 460.443 148.552 461.168H153.992C153.906 460.453 153.613 459.872 153.112 459.424C152.621 458.965 152.008 458.736 151.272 458.736ZM162.365 465.504C162.141 465.696 161.863 465.845 161.533 465.952C161.202 466.048 160.861 466.096 160.509 466.096C159.655 466.096 158.994 465.867 158.525 465.408C158.055 464.949 157.821 464.293 157.821 463.44V458.784H156.381V457.52H157.821V455.664H159.357V457.52H161.789V458.784H159.357V463.376C159.357 463.835 159.469 464.187 159.693 464.432C159.927 464.677 160.258 464.8 160.685 464.8C161.154 464.8 161.554 464.667 161.885 464.4L162.365 465.504ZM168.787 465.504C168.563 465.696 168.285 465.845 167.955 465.952C167.624 466.048 167.283 466.096 166.931 466.096C166.077 466.096 165.416 465.867 164.947 465.408C164.477 464.949 164.243 464.293 164.243 463.44V458.784H162.803V457.52H164.243V455.664H165.779V457.52H168.211V458.784H165.779V463.376C165.779 463.835 165.891 464.187 166.115 464.432C166.349 464.677 166.68 464.8 167.107 464.8C167.576 464.8 167.976 464.667 168.307 464.4L168.787 465.504ZM178.026 461.808C178.026 461.925 178.016 462.08 177.994 462.272H171.114C171.21 463.019 171.536 463.621 172.09 464.08C172.656 464.528 173.354 464.752 174.186 464.752C175.2 464.752 176.016 464.411 176.634 463.728L177.482 464.72C177.098 465.168 176.618 465.509 176.042 465.744C175.477 465.979 174.842 466.096 174.138 466.096C173.242 466.096 172.448 465.915 171.754 465.552C171.061 465.179 170.522 464.661 170.138 464C169.765 463.339 169.578 462.592 169.578 461.76C169.578 460.939 169.76 460.197 170.122 459.536C170.496 458.875 171.002 458.363 171.642 458C172.293 457.627 173.024 457.44 173.834 457.44C174.645 457.44 175.365 457.627 175.994 458C176.634 458.363 177.13 458.875 177.482 459.536C177.845 460.197 178.026 460.955 178.026 461.808ZM173.834 458.736C173.098 458.736 172.48 458.96 171.978 459.408C171.488 459.856 171.2 460.443 171.114 461.168H176.554C176.469 460.453 176.176 459.872 175.674 459.424C175.184 458.965 174.57 458.736 173.834 458.736ZM181.631 458.944C181.898 458.453 182.292 458.08 182.815 457.824C183.338 457.568 183.972 457.44 184.719 457.44V458.928C184.634 458.917 184.516 458.912 184.367 458.912C183.535 458.912 182.879 459.163 182.399 459.664C181.93 460.155 181.695 460.859 181.695 461.776V466H180.159V457.52H181.631V458.944ZM194.715 466.096C193.851 466.096 193.077 465.909 192.395 465.536C191.723 465.163 191.195 464.651 190.811 464C190.427 463.339 190.235 462.592 190.235 461.76C190.235 460.928 190.427 460.187 190.811 459.536C191.195 458.875 191.723 458.363 192.395 458C193.077 457.627 193.851 457.44 194.715 457.44C195.483 457.44 196.165 457.595 196.763 457.904C197.371 458.213 197.84 458.661 198.171 459.248L197.003 460C196.736 459.595 196.405 459.291 196.011 459.088C195.616 458.885 195.179 458.784 194.699 458.784C194.144 458.784 193.643 458.907 193.195 459.152C192.757 459.397 192.411 459.749 192.155 460.208C191.909 460.656 191.787 461.173 191.787 461.76C191.787 462.357 191.909 462.885 192.155 463.344C192.411 463.792 192.757 464.139 193.195 464.384C193.643 464.629 194.144 464.752 194.699 464.752C195.179 464.752 195.616 464.651 196.011 464.448C196.405 464.245 196.736 463.941 197.003 463.536L198.171 464.272C197.84 464.859 197.371 465.312 196.763 465.632C196.165 465.941 195.483 466.096 194.715 466.096ZM204.578 457.44C205.655 457.44 206.508 457.755 207.138 458.384C207.778 459.003 208.098 459.915 208.098 461.12V466H206.562V461.296C206.562 460.475 206.364 459.856 205.97 459.44C205.575 459.024 205.01 458.816 204.274 458.816C203.442 458.816 202.786 459.061 202.306 459.552C201.826 460.032 201.586 460.725 201.586 461.632V466H200.05V454.128H201.586V458.72C201.906 458.315 202.322 458 202.834 457.776C203.356 457.552 203.938 457.44 204.578 457.44ZM214.619 466.096C213.777 466.096 213.019 465.909 212.347 465.536C211.675 465.163 211.147 464.651 210.763 464C210.39 463.339 210.203 462.592 210.203 461.76C210.203 460.928 210.39 460.187 210.763 459.536C211.147 458.875 211.675 458.363 212.347 458C213.019 457.627 213.777 457.44 214.619 457.44C215.462 457.44 216.214 457.627 216.875 458C217.547 458.363 218.07 458.875 218.443 459.536C218.827 460.187 219.019 460.928 219.019 461.76C219.019 462.592 218.827 463.339 218.443 464C218.07 464.651 217.547 465.163 216.875 465.536C216.214 465.909 215.462 466.096 214.619 466.096ZM214.619 464.752C215.163 464.752 215.649 464.629 216.075 464.384C216.513 464.128 216.854 463.776 217.099 463.328C217.345 462.869 217.467 462.347 217.467 461.76C217.467 461.173 217.345 460.656 217.099 460.208C216.854 459.749 216.513 459.397 216.075 459.152C215.649 458.907 215.163 458.784 214.619 458.784C214.075 458.784 213.585 458.907 213.147 459.152C212.721 459.397 212.379 459.749 212.123 460.208C211.878 460.656 211.755 461.173 211.755 461.76C211.755 462.347 211.878 462.869 212.123 463.328C212.379 463.776 212.721 464.128 213.147 464.384C213.585 464.629 214.075 464.752 214.619 464.752ZM221.144 457.52H222.68V466H221.144V457.52ZM221.912 455.888C221.613 455.888 221.362 455.792 221.16 455.6C220.968 455.408 220.872 455.173 220.872 454.896C220.872 454.619 220.968 454.384 221.16 454.192C221.362 453.989 221.613 453.888 221.912 453.888C222.21 453.888 222.456 453.984 222.648 454.176C222.85 454.357 222.952 454.587 222.952 454.864C222.952 455.152 222.85 455.397 222.648 455.6C222.456 455.792 222.21 455.888 221.912 455.888ZM229.308 466.096C228.444 466.096 227.671 465.909 226.988 465.536C226.316 465.163 225.788 464.651 225.404 464C225.02 463.339 224.828 462.592 224.828 461.76C224.828 460.928 225.02 460.187 225.404 459.536C225.788 458.875 226.316 458.363 226.988 458C227.671 457.627 228.444 457.44 229.308 457.44C230.076 457.44 230.759 457.595 231.356 457.904C231.964 458.213 232.434 458.661 232.764 459.248L231.596 460C231.33 459.595 230.999 459.291 230.604 459.088C230.21 458.885 229.772 458.784 229.292 458.784C228.738 458.784 228.236 458.907 227.788 459.152C227.351 459.397 227.004 459.749 226.748 460.208C226.503 460.656 226.38 461.173 226.38 461.76C226.38 462.357 226.503 462.885 226.748 463.344C227.004 463.792 227.351 464.139 227.788 464.384C228.236 464.629 228.738 464.752 229.292 464.752C229.772 464.752 230.21 464.651 230.604 464.448C230.999 464.245 231.33 463.941 231.596 463.536L232.764 464.272C232.434 464.859 231.964 465.312 231.356 465.632C230.759 465.941 230.076 466.096 229.308 466.096ZM242.292 461.808C242.292 461.925 242.281 462.08 242.26 462.272H235.38C235.476 463.019 235.801 463.621 236.356 464.08C236.921 464.528 237.62 464.752 238.452 464.752C239.465 464.752 240.281 464.411 240.9 463.728L241.748 464.72C241.364 465.168 240.884 465.509 240.308 465.744C239.743 465.979 239.108 466.096 238.404 466.096C237.508 466.096 236.713 465.915 236.02 465.552C235.327 465.179 234.788 464.661 234.404 464C234.031 463.339 233.844 462.592 233.844 461.76C233.844 460.939 234.025 460.197 234.388 459.536C234.761 458.875 235.268 458.363 235.908 458C236.559 457.627 237.289 457.44 238.1 457.44C238.911 457.44 239.631 457.627 240.26 458C240.9 458.363 241.396 458.875 241.748 459.536C242.111 460.197 242.292 460.955 242.292 461.808ZM238.1 458.736C237.364 458.736 236.745 458.96 236.244 459.408C235.753 459.856 235.465 460.443 235.38 461.168H240.82C240.735 460.453 240.441 459.872 239.94 459.424C239.449 458.965 238.836 458.736 238.1 458.736ZM246.857 466.096C246.163 466.096 245.497 466.005 244.857 465.824C244.217 465.632 243.715 465.392 243.353 465.104L243.993 463.888C244.366 464.155 244.819 464.368 245.353 464.528C245.886 464.688 246.425 464.768 246.969 464.768C248.313 464.768 248.985 464.384 248.985 463.616C248.985 463.36 248.894 463.157 248.713 463.008C248.531 462.859 248.302 462.752 248.025 462.688C247.758 462.613 247.374 462.533 246.873 462.448C246.19 462.341 245.63 462.219 245.193 462.08C244.766 461.941 244.398 461.707 244.089 461.376C243.779 461.045 243.625 460.581 243.625 459.984C243.625 459.216 243.945 458.603 244.585 458.144C245.225 457.675 246.083 457.44 247.161 457.44C247.726 457.44 248.291 457.509 248.857 457.648C249.422 457.787 249.886 457.973 250.249 458.208L249.593 459.424C248.899 458.976 248.083 458.752 247.145 458.752C246.494 458.752 245.998 458.859 245.657 459.072C245.315 459.285 245.145 459.568 245.145 459.92C245.145 460.197 245.241 460.416 245.433 460.576C245.625 460.736 245.859 460.853 246.137 460.928C246.425 461.003 246.825 461.088 247.337 461.184C248.019 461.301 248.569 461.429 248.985 461.568C249.411 461.696 249.774 461.92 250.073 462.24C250.371 462.56 250.521 463.008 250.521 463.584C250.521 464.352 250.19 464.965 249.529 465.424C248.878 465.872 247.987 466.096 246.857 466.096ZM260.369 466.096C259.527 466.096 258.769 465.909 258.097 465.536C257.425 465.163 256.897 464.651 256.513 464C256.14 463.339 255.953 462.592 255.953 461.76C255.953 460.928 256.14 460.187 256.513 459.536C256.897 458.875 257.425 458.363 258.097 458C258.769 457.627 259.527 457.44 260.369 457.44C261.212 457.44 261.964 457.627 262.625 458C263.297 458.363 263.82 458.875 264.193 459.536C264.577 460.187 264.769 460.928 264.769 461.76C264.769 462.592 264.577 463.339 264.193 464C263.82 464.651 263.297 465.163 262.625 465.536C261.964 465.909 261.212 466.096 260.369 466.096ZM260.369 464.752C260.913 464.752 261.399 464.629 261.825 464.384C262.263 464.128 262.604 463.776 262.849 463.328C263.095 462.869 263.217 462.347 263.217 461.76C263.217 461.173 263.095 460.656 262.849 460.208C262.604 459.749 262.263 459.397 261.825 459.152C261.399 458.907 260.913 458.784 260.369 458.784C259.825 458.784 259.335 458.907 258.897 459.152C258.471 459.397 258.129 459.749 257.873 460.208C257.628 460.656 257.505 461.173 257.505 461.76C257.505 462.347 257.628 462.869 257.873 463.328C258.129 463.776 258.471 464.128 258.897 464.384C259.335 464.629 259.825 464.752 260.369 464.752ZM271.422 457.44C272.499 457.44 273.352 457.755 273.982 458.384C274.622 459.003 274.942 459.915 274.942 461.12V466H273.406V461.296C273.406 460.475 273.208 459.856 272.814 459.44C272.419 459.024 271.854 458.816 271.118 458.816C270.286 458.816 269.63 459.061 269.15 459.552C268.67 460.032 268.43 460.725 268.43 461.632V466H266.894V457.52H268.366V458.8C268.675 458.363 269.091 458.027 269.614 457.792C270.147 457.557 270.75 457.44 271.422 457.44ZM289.585 457.52L285.473 466.848C285.11 467.712 284.684 468.32 284.193 468.672C283.713 469.024 283.132 469.2 282.449 469.2C282.033 469.2 281.628 469.131 281.233 468.992C280.849 468.864 280.529 468.672 280.273 468.416L280.929 467.264C281.366 467.68 281.873 467.888 282.449 467.888C282.822 467.888 283.132 467.787 283.377 467.584C283.633 467.392 283.862 467.056 284.065 466.576L284.337 465.984L280.593 457.52H282.193L285.153 464.304L288.081 457.52H289.585ZM294.416 466.096C293.573 466.096 292.816 465.909 292.144 465.536C291.472 465.163 290.944 464.651 290.56 464C290.187 463.339 290 462.592 290 461.76C290 460.928 290.187 460.187 290.56 459.536C290.944 458.875 291.472 458.363 292.144 458C292.816 457.627 293.573 457.44 294.416 457.44C295.259 457.44 296.011 457.627 296.672 458C297.344 458.363 297.867 458.875 298.24 459.536C298.624 460.187 298.816 460.928 298.816 461.76C298.816 462.592 298.624 463.339 298.24 464C297.867 464.651 297.344 465.163 296.672 465.536C296.011 465.909 295.259 466.096 294.416 466.096ZM294.416 464.752C294.96 464.752 295.445 464.629 295.872 464.384C296.309 464.128 296.651 463.776 296.896 463.328C297.141 462.869 297.264 462.347 297.264 461.76C297.264 461.173 297.141 460.656 296.896 460.208C296.651 459.749 296.309 459.397 295.872 459.152C295.445 458.907 294.96 458.784 294.416 458.784C293.872 458.784 293.381 458.907 292.944 459.152C292.517 459.397 292.176 459.749 291.92 460.208C291.675 460.656 291.552 461.173 291.552 461.76C291.552 462.347 291.675 462.869 291.92 463.328C292.176 463.776 292.517 464.128 292.944 464.384C293.381 464.629 293.872 464.752 294.416 464.752ZM308.844 457.52V466H307.388V464.72C307.079 465.157 306.668 465.499 306.156 465.744C305.655 465.979 305.106 466.096 304.508 466.096C303.378 466.096 302.487 465.787 301.836 465.168C301.186 464.539 300.86 463.616 300.86 462.4V457.52H302.396V462.224C302.396 463.045 302.594 463.669 302.988 464.096C303.383 464.512 303.948 464.72 304.684 464.72C305.495 464.72 306.135 464.475 306.604 463.984C307.074 463.493 307.308 462.8 307.308 461.904V457.52H308.844ZM313.241 458.944C313.507 458.453 313.902 458.08 314.424 457.824C314.947 457.568 315.582 457.44 316.329 457.44V458.928C316.243 458.917 316.126 458.912 315.977 458.912C315.145 458.912 314.489 459.163 314.009 459.664C313.539 460.155 313.305 460.859 313.305 461.776V466H311.769V457.52H313.241V458.944ZM96.456 478.128V490H94.984V488.656C94.6427 489.125 94.2107 489.483 93.688 489.728C93.1653 489.973 92.5893 490.096 91.96 490.096C91.1387 490.096 90.4027 489.915 89.752 489.552C89.1013 489.189 88.5893 488.683 88.216 488.032C87.8533 487.371 87.672 486.613 87.672 485.76C87.672 484.907 87.8533 484.155 88.216 483.504C88.5893 482.853 89.1013 482.347 89.752 481.984C90.4027 481.621 91.1387 481.44 91.96 481.44C92.568 481.44 93.128 481.557 93.64 481.792C94.152 482.016 94.5787 482.352 94.92 482.8V478.128H96.456ZM92.088 488.752C92.6213 488.752 93.1067 488.629 93.544 488.384C93.9813 488.128 94.3227 487.776 94.568 487.328C94.8133 486.869 94.936 486.347 94.936 485.76C94.936 485.173 94.8133 484.656 94.568 484.208C94.3227 483.749 93.9813 483.397 93.544 483.152C93.1067 482.907 92.6213 482.784 92.088 482.784C91.544 482.784 91.0533 482.907 90.616 483.152C90.1893 483.397 89.848 483.749 89.592 484.208C89.3467 484.656 89.224 485.173 89.224 485.76C89.224 486.347 89.3467 486.869 89.592 487.328C89.848 487.776 90.1893 488.128 90.616 488.384C91.0533 488.629 91.544 488.752 92.088 488.752ZM99.3623 481.52H100.898V490H99.3623V481.52ZM100.13 479.888C99.8316 479.888 99.5809 479.792 99.3783 479.6C99.1863 479.408 99.0903 479.173 99.0903 478.896C99.0903 478.619 99.1863 478.384 99.3783 478.192C99.5809 477.989 99.8316 477.888 100.13 477.888C100.429 477.888 100.674 477.984 100.866 478.176C101.069 478.357 101.17 478.587 101.17 478.864C101.17 479.152 101.069 479.397 100.866 479.6C100.674 479.792 100.429 479.888 100.13 479.888ZM111.495 485.808C111.495 485.925 111.484 486.08 111.463 486.272H104.583C104.679 487.019 105.004 487.621 105.559 488.08C106.124 488.528 106.823 488.752 107.655 488.752C108.668 488.752 109.484 488.411 110.103 487.728L110.951 488.72C110.567 489.168 110.087 489.509 109.511 489.744C108.946 489.979 108.311 490.096 107.607 490.096C106.711 490.096 105.916 489.915 105.223 489.552C104.53 489.179 103.991 488.661 103.607 488C103.234 487.339 103.047 486.592 103.047 485.76C103.047 484.939 103.228 484.197 103.591 483.536C103.964 482.875 104.471 482.363 105.111 482C105.762 481.627 106.492 481.44 107.303 481.44C108.114 481.44 108.834 481.627 109.463 482C110.103 482.363 110.599 482.875 110.951 483.536C111.314 484.197 111.495 484.955 111.495 485.808ZM107.303 482.736C106.567 482.736 105.948 482.96 105.447 483.408C104.956 483.856 104.668 484.443 104.583 485.168H110.023C109.938 484.453 109.644 483.872 109.143 483.424C108.652 482.965 108.039 482.736 107.303 482.736ZM118.396 489.504C118.172 489.696 117.895 489.845 117.564 489.952C117.233 490.048 116.892 490.096 116.54 490.096C115.687 490.096 115.025 489.867 114.556 489.408C114.087 488.949 113.852 488.293 113.852 487.44V482.784H112.412V481.52H113.852V479.664H115.388V481.52H117.82V482.784H115.388V487.376C115.388 487.835 115.5 488.187 115.724 488.432C115.959 488.677 116.289 488.8 116.716 488.8C117.185 488.8 117.585 488.667 117.916 488.4L118.396 489.504Z" fill="#EEEEEE"/>
<circle cx="64.5" cy="590.5" r="6.5" fill="#E5EAFF"/>
<path d="M98.408 583.8L93.496 595H91.912L86.984 583.8H88.712L92.744 593L96.808 583.8H98.408ZM99.6279 586.52H101.164V595H99.6279V586.52ZM100.396 584.888C100.097 584.888 99.8465 584.792 99.6439 584.6C99.4519 584.408 99.3559 584.174 99.3559 583.896C99.3559 583.619 99.4519 583.384 99.6439 583.192C99.8465 582.99 100.097 582.888 100.396 582.888C100.695 582.888 100.94 582.984 101.132 583.176C101.335 583.358 101.436 583.587 101.436 583.864C101.436 584.152 101.335 584.398 101.132 584.6C100.94 584.792 100.695 584.888 100.396 584.888ZM106.529 595.096C105.835 595.096 105.169 595.006 104.529 594.824C103.889 594.632 103.387 594.392 103.025 594.104L103.665 592.888C104.038 593.155 104.491 593.368 105.025 593.528C105.558 593.688 106.097 593.768 106.641 593.768C107.985 593.768 108.657 593.384 108.657 592.616C108.657 592.36 108.566 592.158 108.385 592.008C108.203 591.859 107.974 591.752 107.697 591.688C107.43 591.614 107.046 591.534 106.545 591.448C105.862 591.342 105.302 591.219 104.865 591.08C104.438 590.942 104.07 590.707 103.761 590.376C103.451 590.046 103.297 589.582 103.297 588.984C103.297 588.216 103.617 587.603 104.257 587.144C104.897 586.675 105.755 586.44 106.833 586.44C107.398 586.44 107.963 586.51 108.529 586.648C109.094 586.787 109.558 586.974 109.921 587.208L109.265 588.424C108.571 587.976 107.755 587.752 106.817 587.752C106.166 587.752 105.67 587.859 105.329 588.072C104.987 588.286 104.817 588.568 104.817 588.92C104.817 589.198 104.913 589.416 105.105 589.576C105.297 589.736 105.531 589.854 105.809 589.928C106.097 590.003 106.497 590.088 107.009 590.184C107.691 590.302 108.241 590.43 108.657 590.568C109.083 590.696 109.446 590.92 109.745 591.24C110.043 591.56 110.193 592.008 110.193 592.584C110.193 593.352 109.862 593.966 109.201 594.424C108.55 594.872 107.659 595.096 106.529 595.096ZM120.016 586.52V595H118.56V593.72C118.251 594.158 117.84 594.499 117.328 594.744C116.827 594.979 116.278 595.096 115.68 595.096C114.55 595.096 113.659 594.787 113.008 594.168C112.358 593.539 112.032 592.616 112.032 591.4V586.52H113.568V591.224C113.568 592.046 113.766 592.67 114.16 593.096C114.555 593.512 115.12 593.72 115.856 593.72C116.667 593.72 117.307 593.475 117.776 592.984C118.246 592.494 118.48 591.8 118.48 590.904V586.52H120.016ZM126.028 586.44C127.202 586.44 128.098 586.728 128.716 587.304C129.346 587.88 129.66 588.739 129.66 589.88V595H128.204V593.88C127.948 594.275 127.58 594.579 127.1 594.792C126.631 594.995 126.071 595.096 125.42 595.096C124.471 595.096 123.708 594.867 123.132 594.408C122.567 593.95 122.284 593.347 122.284 592.6C122.284 591.854 122.556 591.256 123.1 590.808C123.644 590.35 124.508 590.12 125.692 590.12H128.124V589.816C128.124 589.155 127.932 588.648 127.548 588.296C127.164 587.944 126.599 587.768 125.852 587.768C125.351 587.768 124.86 587.854 124.38 588.024C123.9 588.184 123.495 588.403 123.164 588.68L122.524 587.528C122.962 587.176 123.484 586.91 124.092 586.728C124.7 586.536 125.346 586.44 126.028 586.44ZM125.676 593.912C126.263 593.912 126.77 593.784 127.196 593.528C127.623 593.262 127.932 592.888 128.124 592.408V591.224H125.756C124.455 591.224 123.804 591.662 123.804 592.536C123.804 592.963 123.97 593.299 124.3 593.544C124.631 593.79 125.09 593.912 125.676 593.912ZM132.503 583.128H134.039V595H132.503V583.128ZM136.972 586.52H138.508V595H136.972V586.52ZM137.74 584.888C137.441 584.888 137.19 584.792 136.988 584.6C136.796 584.408 136.7 584.174 136.7 583.896C136.7 583.619 136.796 583.384 136.988 583.192C137.19 582.99 137.441 582.888 137.74 582.888C138.038 582.888 138.284 582.984 138.476 583.176C138.678 583.358 138.78 583.587 138.78 583.864C138.78 584.152 138.678 584.398 138.476 584.6C138.284 584.792 138.038 584.888 137.74 584.888ZM147.728 593.736V595H140.624V594.008L145.632 587.784H140.72V586.52H147.6V587.528L142.592 593.736H147.728ZM149.784 586.52H151.32V595H149.784V586.52ZM150.552 584.888C150.253 584.888 150.003 584.792 149.8 584.6C149.608 584.408 149.512 584.174 149.512 583.896C149.512 583.619 149.608 583.384 149.8 583.192C150.003 582.99 150.253 582.888 150.552 582.888C150.851 582.888 151.096 582.984 151.288 583.176C151.491 583.358 151.592 583.587 151.592 583.864C151.592 584.152 151.491 584.398 151.288 584.6C151.096 584.792 150.851 584.888 150.552 584.888ZM158.781 586.44C159.858 586.44 160.712 586.755 161.341 587.384C161.981 588.003 162.301 588.915 162.301 590.12V595H160.765V590.296C160.765 589.475 160.568 588.856 160.173 588.44C159.778 588.024 159.213 587.816 158.477 587.816C157.645 587.816 156.989 588.062 156.509 588.552C156.029 589.032 155.789 589.726 155.789 590.632V595H154.253V586.52H155.725V587.8C156.034 587.363 156.45 587.027 156.973 586.792C157.506 586.558 158.109 586.44 158.781 586.44ZM173.302 586.52V593.848C173.302 595.331 172.934 596.424 172.198 597.128C171.462 597.843 170.364 598.2 168.902 598.2C168.102 598.2 167.34 598.088 166.614 597.864C165.889 597.651 165.302 597.342 164.854 596.936L165.59 595.752C165.985 596.094 166.47 596.36 167.046 596.552C167.633 596.755 168.236 596.856 168.854 596.856C169.846 596.856 170.577 596.622 171.046 596.152C171.526 595.683 171.766 594.968 171.766 594.008V593.336C171.404 593.774 170.956 594.104 170.422 594.328C169.9 594.542 169.329 594.648 168.71 594.648C167.9 594.648 167.164 594.478 166.502 594.136C165.852 593.784 165.34 593.299 164.966 592.68C164.593 592.051 164.406 591.336 164.406 590.536C164.406 589.736 164.593 589.027 164.966 588.408C165.34 587.779 165.852 587.294 166.502 586.952C167.164 586.611 167.9 586.44 168.71 586.44C169.35 586.44 169.942 586.558 170.486 586.792C171.041 587.027 171.494 587.374 171.846 587.832V586.52H173.302ZM168.886 593.304C169.441 593.304 169.937 593.187 170.374 592.952C170.822 592.718 171.169 592.392 171.414 591.976C171.67 591.55 171.798 591.07 171.798 590.536C171.798 589.715 171.526 589.054 170.982 588.552C170.438 588.04 169.74 587.784 168.886 587.784C168.022 587.784 167.318 588.04 166.774 588.552C166.23 589.054 165.958 589.715 165.958 590.536C165.958 591.07 166.081 591.55 166.326 591.976C166.582 592.392 166.929 592.718 167.366 592.952C167.814 593.187 168.321 593.304 168.886 593.304ZM180.534 586.52H182.07V595H180.534V586.52ZM181.302 584.888C181.003 584.888 180.753 584.792 180.55 584.6C180.358 584.408 180.262 584.174 180.262 583.896C180.262 583.619 180.358 583.384 180.55 583.192C180.753 582.99 181.003 582.888 181.302 582.888C181.601 582.888 181.846 582.984 182.038 583.176C182.241 583.358 182.342 583.587 182.342 583.864C182.342 584.152 182.241 584.398 182.038 584.6C181.846 584.792 181.601 584.888 181.302 584.888ZM187.435 595.096C186.742 595.096 186.075 595.006 185.435 594.824C184.795 594.632 184.294 594.392 183.931 594.104L184.571 592.888C184.944 593.155 185.398 593.368 185.931 593.528C186.464 593.688 187.003 593.768 187.547 593.768C188.891 593.768 189.563 593.384 189.563 592.616C189.563 592.36 189.472 592.158 189.291 592.008C189.11 591.859 188.88 591.752 188.603 591.688C188.336 591.614 187.952 591.534 187.451 591.448C186.768 591.342 186.208 591.219 185.771 591.08C185.344 590.942 184.976 590.707 184.667 590.376C184.358 590.046 184.203 589.582 184.203 588.984C184.203 588.216 184.523 587.603 185.163 587.144C185.803 586.675 186.662 586.44 187.739 586.44C188.304 586.44 188.87 586.51 189.435 586.648C190 586.787 190.464 586.974 190.827 587.208L190.171 588.424C189.478 587.976 188.662 587.752 187.723 587.752C187.072 587.752 186.576 587.859 186.235 588.072C185.894 588.286 185.723 588.568 185.723 588.92C185.723 589.198 185.819 589.416 186.011 589.576C186.203 589.736 186.438 589.854 186.715 589.928C187.003 590.003 187.403 590.088 187.915 590.184C188.598 590.302 189.147 590.43 189.563 590.568C189.99 590.696 190.352 590.92 190.651 591.24C190.95 591.56 191.099 592.008 191.099 592.584C191.099 593.352 190.768 593.966 190.107 594.424C189.456 594.872 188.566 595.096 187.435 595.096ZM204.979 590.808C204.979 590.926 204.969 591.08 204.947 591.272H198.067C198.163 592.019 198.489 592.622 199.043 593.08C199.609 593.528 200.307 593.752 201.139 593.752C202.153 593.752 202.969 593.411 203.587 592.728L204.435 593.72C204.051 594.168 203.571 594.51 202.995 594.744C202.43 594.979 201.795 595.096 201.091 595.096C200.195 595.096 199.401 594.915 198.707 594.552C198.014 594.179 197.475 593.662 197.091 593C196.718 592.339 196.531 591.592 196.531 590.76C196.531 589.939 196.713 589.198 197.075 588.536C197.449 587.875 197.955 587.363 198.595 587C199.246 586.627 199.977 586.44 200.787 586.44C201.598 586.44 202.318 586.627 202.947 587C203.587 587.363 204.083 587.875 204.435 588.536C204.798 589.198 204.979 589.955 204.979 590.808ZM200.787 587.736C200.051 587.736 199.433 587.96 198.931 588.408C198.441 588.856 198.153 589.443 198.067 590.168H203.507C203.422 589.454 203.129 588.872 202.627 588.424C202.137 587.966 201.523 587.736 200.787 587.736ZM211.64 586.44C212.718 586.44 213.571 586.755 214.2 587.384C214.84 588.003 215.16 588.915 215.16 590.12V595H213.624V590.296C213.624 589.475 213.427 588.856 213.032 588.44C212.638 588.024 212.072 587.816 211.336 587.816C210.504 587.816 209.848 588.062 209.368 588.552C208.888 589.032 208.648 589.726 208.648 590.632V595H207.112V586.52H208.584V587.8C208.894 587.363 209.31 587.027 209.832 586.792C210.366 586.558 210.968 586.44 211.64 586.44ZM225.714 590.808C225.714 590.926 225.703 591.08 225.682 591.272H218.802C218.898 592.019 219.223 592.622 219.778 593.08C220.343 593.528 221.042 593.752 221.874 593.752C222.887 593.752 223.703 593.411 224.322 592.728L225.17 593.72C224.786 594.168 224.306 594.51 223.73 594.744C223.164 594.979 222.53 595.096 221.826 595.096C220.93 595.096 220.135 594.915 219.442 594.552C218.748 594.179 218.21 593.662 217.826 593C217.452 592.339 217.266 591.592 217.266 590.76C217.266 589.939 217.447 589.198 217.81 588.536C218.183 587.875 218.69 587.363 219.33 587C219.98 586.627 220.711 586.44 221.522 586.44C222.332 586.44 223.052 586.627 223.682 587C224.322 587.363 224.818 587.875 225.17 588.536C225.532 589.198 225.714 589.955 225.714 590.808ZM221.522 587.736C220.786 587.736 220.167 587.96 219.666 588.408C219.175 588.856 218.887 589.443 218.802 590.168H224.242C224.156 589.454 223.863 588.872 223.362 588.424C222.871 587.966 222.258 587.736 221.522 587.736ZM229.319 587.944C229.585 587.454 229.98 587.08 230.503 586.824C231.025 586.568 231.66 586.44 232.407 586.44V587.928C232.321 587.918 232.204 587.912 232.055 587.912C231.223 587.912 230.567 588.163 230.087 588.664C229.617 589.155 229.383 589.859 229.383 590.776V595H227.847V586.52H229.319V587.944ZM242.334 586.52V593.848C242.334 595.331 241.966 596.424 241.23 597.128C240.494 597.843 239.395 598.2 237.934 598.2C237.134 598.2 236.371 598.088 235.646 597.864C234.92 597.651 234.334 597.342 233.886 596.936L234.622 595.752C235.016 596.094 235.502 596.36 236.078 596.552C236.664 596.755 237.267 596.856 237.886 596.856C238.878 596.856 239.608 596.622 240.078 596.152C240.558 595.683 240.798 594.968 240.798 594.008V593.336C240.435 593.774 239.987 594.104 239.454 594.328C238.931 594.542 238.36 594.648 237.742 594.648C236.931 594.648 236.195 594.478 235.534 594.136C234.883 593.784 234.371 593.299 233.998 592.68C233.624 592.051 233.438 591.336 233.438 590.536C233.438 589.736 233.624 589.027 233.998 588.408C234.371 587.779 234.883 587.294 235.534 586.952C236.195 586.611 236.931 586.44 237.742 586.44C238.382 586.44 238.974 586.558 239.518 586.792C240.072 587.027 240.526 587.374 240.878 587.832V586.52H242.334ZM237.918 593.304C238.472 593.304 238.968 593.187 239.406 592.952C239.854 592.718 240.2 592.392 240.446 591.976C240.702 591.55 240.83 591.07 240.83 590.536C240.83 589.715 240.558 589.054 240.014 588.552C239.47 588.04 238.771 587.784 237.918 587.784C237.054 587.784 236.35 588.04 235.806 588.552C235.262 589.054 234.99 589.715 234.99 590.536C234.99 591.07 235.112 591.55 235.358 591.976C235.614 592.392 235.96 592.718 236.398 592.952C236.846 593.187 237.352 593.304 237.918 593.304ZM245.269 586.52H246.805V595H245.269V586.52ZM246.037 584.888C245.738 584.888 245.487 584.792 245.285 584.6C245.093 584.408 244.997 584.174 244.997 583.896C244.997 583.619 245.093 583.384 245.285 583.192C245.487 582.99 245.738 582.888 246.037 582.888C246.335 582.888 246.581 582.984 246.773 583.176C246.975 583.358 247.077 583.587 247.077 583.864C247.077 584.152 246.975 584.398 246.773 584.6C246.581 584.792 246.335 584.888 246.037 584.888ZM256.025 593.736V595H248.921V594.008L253.929 587.784H249.017V586.52H255.897V587.528L250.889 593.736H256.025ZM258.081 586.52H259.617V595H258.081V586.52ZM258.849 584.888C258.55 584.888 258.3 584.792 258.097 584.6C257.905 584.408 257.809 584.174 257.809 583.896C257.809 583.619 257.905 583.384 258.097 583.192C258.3 582.99 258.55 582.888 258.849 582.888C259.148 582.888 259.393 582.984 259.585 583.176C259.788 583.358 259.889 583.587 259.889 583.864C259.889 584.152 259.788 584.398 259.585 584.6C259.393 584.792 259.148 584.888 258.849 584.888ZM267.078 586.44C268.155 586.44 269.008 586.755 269.638 587.384C270.278 588.003 270.598 588.915 270.598 590.12V595H269.062V590.296C269.062 589.475 268.864 588.856 268.47 588.44C268.075 588.024 267.51 587.816 266.774 587.816C265.942 587.816 265.286 588.062 264.806 588.552C264.326 589.032 264.086 589.726 264.086 590.632V595H262.55V586.52H264.022V587.8C264.331 587.363 264.747 587.027 265.27 586.792C265.803 586.558 266.406 586.44 267.078 586.44ZM281.599 586.52V593.848C281.599 595.331 281.231 596.424 280.495 597.128C279.759 597.843 278.661 598.2 277.199 598.2C276.399 598.2 275.637 598.088 274.911 597.864C274.186 597.651 273.599 597.342 273.151 596.936L273.887 595.752C274.282 596.094 274.767 596.36 275.343 596.552C275.93 596.755 276.533 596.856 277.151 596.856C278.143 596.856 278.874 596.622 279.343 596.152C279.823 595.683 280.063 594.968 280.063 594.008V593.336C279.701 593.774 279.253 594.104 278.719 594.328C278.197 594.542 277.626 594.648 277.007 594.648C276.197 594.648 275.461 594.478 274.799 594.136C274.149 593.784 273.637 593.299 273.263 592.68C272.89 592.051 272.703 591.336 272.703 590.536C272.703 589.736 272.89 589.027 273.263 588.408C273.637 587.779 274.149 587.294 274.799 586.952C275.461 586.611 276.197 586.44 277.007 586.44C277.647 586.44 278.239 586.558 278.783 586.792C279.338 587.027 279.791 587.374 280.143 587.832V586.52H281.599ZM277.183 593.304C277.738 593.304 278.234 593.187 278.671 592.952C279.119 592.718 279.466 592.392 279.711 591.976C279.967 591.55 280.095 591.07 280.095 590.536C280.095 589.715 279.823 589.054 279.279 588.552C278.735 588.04 278.037 587.784 277.183 587.784C276.319 587.784 275.615 588.04 275.071 588.552C274.527 589.054 274.255 589.715 274.255 590.536C274.255 591.07 274.378 591.55 274.623 591.976C274.879 592.392 275.226 592.718 275.663 592.952C276.111 593.187 276.618 593.304 277.183 593.304Z" fill="#EEEEEE"/>
<path d="M123.999 204.19C122.644 204.19 121.421 203.899 120.332 203.316C119.243 202.721 118.388 201.904 117.767 200.865C117.146 199.814 116.836 198.642 116.836 197.35C116.836 196.058 117.146 194.893 117.767 193.854C118.388 192.803 119.243 191.986 120.332 191.403C121.421 190.808 122.644 190.51 123.999 190.51C125.354 190.51 126.577 190.808 127.666 191.403C128.755 191.986 129.61 192.796 130.231 193.835C130.852 194.874 131.162 196.045 131.162 197.35C131.162 198.655 130.852 199.826 130.231 200.865C129.61 201.904 128.755 202.721 127.666 203.316C126.577 203.899 125.354 204.19 123.999 204.19ZM123.999 202.024C124.886 202.024 125.684 201.828 126.393 201.435C127.102 201.03 127.66 200.472 128.065 199.763C128.47 199.041 128.673 198.237 128.673 197.35C128.673 196.463 128.47 195.665 128.065 194.956C127.66 194.234 127.102 193.677 126.393 193.284C125.684 192.879 124.886 192.676 123.999 192.676C123.112 192.676 122.314 192.879 121.605 193.284C120.896 193.677 120.338 194.234 119.933 194.956C119.528 195.665 119.325 196.463 119.325 197.35C119.325 198.237 119.528 199.041 119.933 199.763C120.338 200.472 120.896 201.03 121.605 201.435C122.314 201.828 123.112 202.024 123.999 202.024ZM139.744 203.449C139.465 203.677 139.123 203.848 138.718 203.962C138.325 204.076 137.907 204.133 137.464 204.133C136.349 204.133 135.488 203.842 134.88 203.259C134.272 202.676 133.968 201.828 133.968 200.713V195.83H132.296V193.93H133.968V191.612H136.343V193.93H139.06V195.83H136.343V200.656C136.343 201.15 136.463 201.53 136.704 201.796C136.945 202.049 137.293 202.176 137.749 202.176C138.281 202.176 138.724 202.037 139.079 201.758L139.744 203.449ZM147.455 193.74C148.734 193.74 149.76 194.114 150.533 194.861C151.305 195.608 151.692 196.717 151.692 198.186V204H149.317V198.49C149.317 197.603 149.108 196.938 148.69 196.495C148.272 196.039 147.676 195.811 146.904 195.811C146.03 195.811 145.339 196.077 144.833 196.609C144.326 197.128 144.073 197.882 144.073 198.87V204H141.698V189.902H144.073V195.032C144.465 194.614 144.947 194.297 145.517 194.082C146.099 193.854 146.745 193.74 147.455 193.74ZM164.335 198.984C164.335 199.149 164.323 199.383 164.297 199.687H156.336C156.476 200.434 156.837 201.03 157.419 201.473C158.015 201.904 158.749 202.119 159.623 202.119C160.738 202.119 161.656 201.752 162.378 201.017L163.651 202.48C163.195 203.025 162.619 203.436 161.922 203.715C161.226 203.994 160.44 204.133 159.566 204.133C158.452 204.133 157.47 203.911 156.621 203.468C155.773 203.025 155.114 202.41 154.645 201.625C154.189 200.827 153.961 199.928 153.961 198.927C153.961 197.939 154.183 197.052 154.626 196.267C155.082 195.469 155.709 194.848 156.507 194.405C157.305 193.962 158.205 193.74 159.205 193.74C160.193 193.74 161.074 193.962 161.846 194.405C162.632 194.836 163.24 195.45 163.67 196.248C164.114 197.033 164.335 197.945 164.335 198.984ZM159.205 195.64C158.445 195.64 157.799 195.868 157.267 196.324C156.748 196.767 156.431 197.363 156.317 198.11H162.074C161.973 197.375 161.663 196.78 161.143 196.324C160.624 195.868 159.978 195.64 159.205 195.64ZM168.878 195.336C169.562 194.272 170.765 193.74 172.488 193.74V196.001C172.285 195.963 172.101 195.944 171.937 195.944C171.012 195.944 170.29 196.216 169.771 196.761C169.251 197.293 168.992 198.066 168.992 199.079V204H166.617V193.854H168.878V195.336ZM189.498 197.084C190.233 197.325 190.815 197.73 191.246 198.3C191.677 198.857 191.892 199.554 191.892 200.39C191.892 201.543 191.449 202.436 190.562 203.069C189.675 203.69 188.383 204 186.686 204H180.074V190.7H186.306C187.877 190.7 189.086 191.01 189.935 191.631C190.784 192.239 191.208 193.081 191.208 194.158C191.208 194.817 191.056 195.399 190.752 195.906C190.448 196.413 190.03 196.805 189.498 197.084ZM182.544 192.638V196.305H186.04C186.901 196.305 187.56 196.153 188.016 195.849C188.485 195.532 188.719 195.076 188.719 194.481C188.719 193.873 188.485 193.417 188.016 193.113C187.56 192.796 186.901 192.638 186.04 192.638H182.544ZM186.534 202.062C188.447 202.062 189.403 201.422 189.403 200.143C189.403 198.864 188.447 198.224 186.534 198.224H182.544V202.062H186.534ZM203.838 198.984C203.838 199.149 203.826 199.383 203.8 199.687H195.839C195.979 200.434 196.34 201.03 196.922 201.473C197.518 201.904 198.252 202.119 199.126 202.119C200.241 202.119 201.159 201.752 201.881 201.017L203.154 202.48C202.698 203.025 202.122 203.436 201.425 203.715C200.729 203.994 199.943 204.133 199.069 204.133C197.955 204.133 196.973 203.911 196.124 203.468C195.276 203.025 194.617 202.41 194.148 201.625C193.692 200.827 193.464 199.928 193.464 198.927C193.464 197.939 193.686 197.052 194.129 196.267C194.585 195.469 195.212 194.848 196.01 194.405C196.808 193.962 197.708 193.74 198.708 193.74C199.696 193.74 200.577 193.962 201.349 194.405C202.135 194.836 202.743 195.45 203.173 196.248C203.617 197.033 203.838 197.945 203.838 198.984ZM198.708 195.64C197.948 195.64 197.302 195.868 196.77 196.324C196.251 196.767 195.934 197.363 195.82 198.11H201.577C201.476 197.375 201.166 196.78 200.646 196.324C200.127 195.868 199.481 195.64 198.708 195.64ZM211.877 193.74C213.156 193.74 214.182 194.114 214.955 194.861C215.727 195.608 216.114 196.717 216.114 198.186V204H213.739V198.49C213.739 197.603 213.53 196.938 213.112 196.495C212.694 196.039 212.098 195.811 211.326 195.811C210.452 195.811 209.761 196.077 209.255 196.609C208.748 197.128 208.495 197.882 208.495 198.87V204H206.12V193.854H208.381V195.165C208.773 194.696 209.267 194.342 209.863 194.101C210.458 193.86 211.129 193.74 211.877 193.74ZM228.757 198.984C228.757 199.149 228.744 199.383 228.719 199.687H220.758C220.897 200.434 221.258 201.03 221.841 201.473C222.436 201.904 223.171 202.119 224.045 202.119C225.16 202.119 226.078 201.752 226.8 201.017L228.073 202.48C227.617 203.025 227.041 203.436 226.344 203.715C225.647 203.994 224.862 204.133 223.988 204.133C222.873 204.133 221.892 203.911 221.043 203.468C220.194 203.025 219.536 202.41 219.067 201.625C218.611 200.827 218.383 199.928 218.383 198.927C218.383 197.939 218.605 197.052 219.048 196.267C219.504 195.469 220.131 194.848 220.929 194.405C221.727 193.962 222.626 193.74 223.627 193.74C224.615 193.74 225.495 193.962 226.268 194.405C227.053 194.836 227.661 195.45 228.092 196.248C228.535 197.033 228.757 197.945 228.757 198.984ZM223.627 195.64C222.867 195.64 222.221 195.868 221.689 196.324C221.17 196.767 220.853 197.363 220.739 198.11H226.496C226.395 197.375 226.084 196.78 225.565 196.324C225.046 195.868 224.4 195.64 223.627 195.64ZM235.161 191.688C234.161 191.688 233.66 192.233 233.66 193.322V193.93H236.453V195.83H233.736V204H231.361V195.83H229.689V193.93H231.361V193.284C231.361 192.195 231.678 191.34 232.311 190.719C232.945 190.086 233.838 189.769 234.99 189.769C235.902 189.769 236.618 189.953 237.137 190.32L236.472 192.106C236.067 191.827 235.63 191.688 235.161 191.688ZM239.569 193.854H241.944V204H239.569V193.854ZM240.766 192.182C240.336 192.182 239.975 192.049 239.683 191.783C239.392 191.504 239.246 191.162 239.246 190.757C239.246 190.352 239.392 190.016 239.683 189.75C239.975 189.471 240.336 189.332 240.766 189.332C241.197 189.332 241.558 189.465 241.849 189.731C242.141 189.984 242.286 190.307 242.286 190.7C242.286 191.118 242.141 191.473 241.849 191.764C241.571 192.043 241.21 192.182 240.766 192.182ZM251.165 203.449C250.886 203.677 250.544 203.848 250.139 203.962C249.746 204.076 249.328 204.133 248.885 204.133C247.77 204.133 246.909 203.842 246.301 203.259C245.693 202.676 245.389 201.828 245.389 200.713V195.83H243.717V193.93H245.389V191.612H247.764V193.93H250.481V195.83H247.764V200.656C247.764 201.15 247.884 201.53 248.125 201.796C248.365 202.049 248.714 202.176 249.17 202.176C249.702 202.176 250.145 202.037 250.5 201.758L251.165 203.449ZM256.254 204.133C255.43 204.133 254.626 204.025 253.841 203.81C253.055 203.595 252.428 203.322 251.96 202.993L252.872 201.188C253.328 201.492 253.872 201.739 254.506 201.929C255.152 202.106 255.785 202.195 256.406 202.195C257.824 202.195 258.534 201.821 258.534 201.074C258.534 200.719 258.35 200.472 257.983 200.333C257.628 200.194 257.052 200.061 256.254 199.934C255.418 199.807 254.734 199.662 254.202 199.497C253.682 199.332 253.226 199.047 252.834 198.642C252.454 198.224 252.264 197.648 252.264 196.913C252.264 195.95 252.663 195.184 253.461 194.614C254.271 194.031 255.361 193.74 256.729 193.74C257.425 193.74 258.122 193.822 258.819 193.987C259.515 194.139 260.085 194.348 260.529 194.614L259.617 196.419C258.755 195.912 257.786 195.659 256.71 195.659C256.013 195.659 255.481 195.767 255.114 195.982C254.759 196.185 254.582 196.457 254.582 196.799C254.582 197.179 254.772 197.451 255.152 197.616C255.544 197.768 256.146 197.914 256.957 198.053C257.767 198.18 258.432 198.325 258.952 198.49C259.471 198.655 259.914 198.933 260.282 199.326C260.662 199.719 260.852 200.276 260.852 200.998C260.852 201.948 260.44 202.708 259.617 203.278C258.793 203.848 257.672 204.133 256.254 204.133Z" fill="#E5EAFF"/>
<defs>
<filter id="filter0_d" x="9.22375" y="2.77319" width="464.527" height="659.373" filterUnits="userSpaceOnUse" color-interpolation-filters="sRGB">
<feFlood flood-opacity="0" result="BackgroundImageFix"/>
<feColorMatrix in="SourceAlpha" type="matrix" values="0 0 0 0 0 0 0 0 0 0 0 0 0 0 0 0 0 0 127 0"/>
<feOffset dy="4"/>
<feGaussianBlur stdDeviation="2"/>
<feColorMatrix type="matrix" values="0 0 0 0 0 0 0 0 0 0 0 0 0 0 0 0 0 0 0.25 0"/>
<feBlend mode="normal" in2="BackgroundImageFix" result="effect1_dropShadow"/>
<feBlend mode="normal" in="SourceGraphic" in2="effect1_dropShadow" result="shape"/>
</filter>
</defs>
</svg>
