<svg width="315" height="676" viewBox="0 0 315 676" fill="none" xmlns="http://www.w3.org/2000/svg">
<path fill-rule="evenodd" clip-rule="evenodd" d="M0 140.766C0 140.192 0.431424 139.727 0.963852 139.727H3.37931V189.166H0.963852C0.431531 189.166 0 188.7 0 188.127L0 140.766Z" fill="#E6E6E6"/>
<path fill-rule="evenodd" clip-rule="evenodd" d="M0 202.693C0 202.12 0.431424 201.655 0.963852 201.655L3.37931 201.655V251.093H0.963852C0.431531 251.093 0 250.628 0 250.055V202.693Z" fill="#E6E6E6"/>
<path fill-rule="evenodd" clip-rule="evenodd" d="M0 92.3703C0 91.7959 0.431424 91.3302 0.963852 91.3302H3.37931V118.391H0.963852C0.431531 118.391 0 117.927 0 117.351V92.3703Z" fill="#E6E6E6"/>
<path fill-rule="evenodd" clip-rule="evenodd" d="M311.621 155.339H313.794C314.46 155.339 315 155.92 315 156.639V234.702C315 235.42 314.461 236.001 313.794 236.001H311.621V155.339Z" fill="#E6E6E6"/>
<path fill-rule="evenodd" clip-rule="evenodd" d="M2.41365 52.04C2.41365 23.2991 24.028 0 50.6919 0H264.308C290.971 0 312.586 23.3001 312.586 52.04V623.96C312.586 652.701 290.972 676 264.308 676H50.6919C24.0285 676 2.41365 652.7 2.41365 623.96V52.04Z" fill="#E6E6E6"/>
<path d="M7.72418 52.5618C7.72418 26.6942 27.1766 5.7244 51.1715 5.7244H263.829C287.824 5.7244 307.276 26.6933 307.276 52.5618V623.438C307.276 649.306 287.823 670.276 263.829 670.276H51.1715C27.1762 670.276 7.72418 649.307 7.72418 623.438V52.5618Z" fill="white"/>
<path fill-rule="evenodd" clip-rule="evenodd" d="M307.276 65.05H312.586V70.254H307.276V65.05Z" fill="#CCCCCC"/>
<path fill-rule="evenodd" clip-rule="evenodd" d="M2.41365 65.05H7.724V70.254H2.41365V65.05Z" fill="#CCCCCC"/>
<path fill-rule="evenodd" clip-rule="evenodd" d="M307.276 606.266H312.586V611.47H307.276V606.266Z" fill="#CCCCCC"/>
<path fill-rule="evenodd" clip-rule="evenodd" d="M2.41365 606.266H7.724V611.47H2.41365V606.266Z" fill="#CCCCCC"/>
<rect x="23.5869" y="21.3043" width="271.623" height="633.391" rx="23"/>
<path d="M76.0869 20.4849H242.717C241.109 20.9805 239.994 22.4435 239.943 24.1254L239.915 25.0422C239.915 36.1014 230.949 45.0667 219.89 45.0667H98.9141C87.8548 45.0667 78.8895 36.1014 78.8895 25.0422L78.8615 24.1254C78.8099 22.4435 77.6949 20.9805 76.0869 20.4849Z" fill="white"/>
<path fill-rule="evenodd" clip-rule="evenodd" d="M125.517 31.2241C127.117 31.2241 128.414 29.8261 128.414 28.1017C128.414 26.3772 127.117 24.9792 125.517 24.9792C123.917 24.9792 122.621 26.3772 122.621 28.1017C122.621 29.8261 123.917 31.2241 125.517 31.2241Z" fill="#E6E6E6"/>
<path fill-rule="evenodd" clip-rule="evenodd" d="M125.517 30.1832C126.584 30.1832 127.448 29.2513 127.448 28.1016C127.448 26.952 126.584 26.02 125.517 26.02C124.451 26.02 123.586 26.952 123.586 28.1016C123.586 29.2513 124.451 30.1832 125.517 30.1832Z" fill="#B3B3B3"/>
<path fill-rule="evenodd" clip-rule="evenodd" d="M192.621 33.3056C195.287 33.3056 197.448 30.9757 197.448 28.1016C197.448 25.2275 195.287 22.8976 192.621 22.8976C189.955 22.8976 187.793 25.2275 187.793 28.1016C187.793 30.9757 189.955 33.3056 192.621 33.3056Z" fill="#E6E6E6"/>
<path fill-rule="evenodd" clip-rule="evenodd" d="M192.621 32.2648C194.754 32.2648 196.483 30.4008 196.483 28.1016C196.483 25.8023 194.754 23.9384 192.621 23.9384C190.488 23.9384 188.758 25.8023 188.758 28.1016C188.758 30.4008 190.488 32.2648 192.621 32.2648Z" fill="#B3B3B3"/>
<path fill-rule="evenodd" clip-rule="evenodd" d="M141.448 26.02H173.793C174.86 26.02 175.724 26.9521 175.724 28.1016C175.724 29.2512 174.86 30.1832 173.793 30.1832H141.448C140.382 30.1832 139.517 29.2512 139.517 28.1016C139.517 26.9521 140.382 26.02 141.448 26.02Z" fill="#E6E6E6"/>
<path fill-rule="evenodd" clip-rule="evenodd" d="M141.448 27.0608H173.793C174.326 27.0608 174.759 27.5267 174.759 28.1016C174.759 28.6764 174.326 29.1424 173.793 29.1424H141.448C140.915 29.1424 140.483 28.6764 140.483 28.1016C140.483 27.5267 140.915 27.0608 141.448 27.0608Z" fill="#B3B3B3"/>
</svg>
