<svg width="20" height="16" viewBox="0 0 20 16" fill="none" xmlns="http://www.w3.org/2000/svg">
<path fill-rule="evenodd" clip-rule="evenodd" d="M13.5756 0.814703C13.653 0.714947 13.745 0.6358 13.8462 0.581798C13.9475 0.527796 14.056 0.5 14.1656 0.5C14.2752 0.5 14.3837 0.527796 14.485 0.581798C14.5862 0.6358 14.6782 0.714947 14.7556 0.814703L19.7552 7.24187C19.8328 7.34138 19.8943 7.45959 19.9364 7.58973C19.9784 7.71987 20 7.85938 20 8.00028C20 8.14118 19.9784 8.28069 19.9364 8.41083C19.8943 8.54097 19.8328 8.65918 19.7552 8.75869L14.7556 15.1859C14.5991 15.387 14.3869 15.5 14.1656 15.5C13.9443 15.5 13.7321 15.387 13.5756 15.1859C13.4192 14.9847 13.3313 14.7119 13.3313 14.4275C13.3313 14.143 13.4192 13.8702 13.5756 13.669L17.987 8.00028L13.5756 2.33152C13.498 2.23201 13.4365 2.1138 13.3945 1.98366C13.3525 1.85352 13.3308 1.71401 13.3308 1.57311C13.3308 1.43221 13.3525 1.2927 13.3945 1.16256C13.4365 1.03242 13.498 0.914208 13.5756 0.814703Z" fill="white"/>
<path fill-rule="evenodd" clip-rule="evenodd" d="M0 8.0003C0 7.7162 0.0877909 7.44373 0.244059 7.24284C0.400328 7.04195 0.612274 6.92909 0.833271 6.92909H18.332C18.5529 6.92909 18.7649 7.04195 18.9212 7.24284C19.0774 7.44373 19.1652 7.7162 19.1652 8.0003C19.1652 8.28441 19.0774 8.55687 18.9212 8.75776C18.7649 8.95865 18.5529 9.07151 18.332 9.07151H0.833271C0.612274 9.07151 0.400328 8.95865 0.244059 8.75776C0.0877909 8.55687 0 8.28441 0 8.0003Z" fill="white"/>
</svg>
