<svg width="20" height="12" viewBox="0 0 20 12" fill="none" xmlns="http://www.w3.org/2000/svg">
<path fill-rule="evenodd" clip-rule="evenodd" d="M13.5756 0.970292C13.653 0.900463 13.745 0.84506 13.8462 0.807259C13.9474 0.769457 14.056 0.75 14.1656 0.75C14.2752 0.75 14.3837 0.769457 14.4849 0.807259C14.5862 0.84506 14.6781 0.900463 14.7555 0.970292L19.7552 5.46931C19.8328 5.53897 19.8943 5.62171 19.9363 5.71281C19.9783 5.80391 20 5.90157 20 6.0002C20 6.09883 19.9783 6.19649 19.9363 6.28758C19.8943 6.37868 19.8328 6.46143 19.7552 6.53108L14.7555 11.0301C14.5991 11.1709 14.3868 11.25 14.1656 11.25C13.9443 11.25 13.7321 11.1709 13.5756 11.0301C13.4191 10.8893 13.3312 10.6983 13.3312 10.4992C13.3312 10.3001 13.4191 10.1091 13.5756 9.96833L17.987 6.0002L13.5756 2.03206C13.498 1.96241 13.4364 1.87966 13.3944 1.78856C13.3524 1.69747 13.3308 1.59981 13.3308 1.50118C13.3308 1.40255 13.3524 1.30489 13.3944 1.21379C13.4364 1.12269 13.498 1.03995 13.5756 0.970292Z" fill="#01115D"/>
<path fill-rule="evenodd" clip-rule="evenodd" d="M0 6.00021C0 5.80134 0.0877909 5.61062 0.244059 5.46999C0.400328 5.32937 0.612274 5.25037 0.833271 5.25037H18.332C18.5529 5.25037 18.7649 5.32937 18.9212 5.46999C19.0774 5.61062 19.1652 5.80134 19.1652 6.00021C19.1652 6.19909 19.0774 6.38981 18.9212 6.53044C18.7649 6.67106 18.5529 6.75006 18.332 6.75006H0.833271C0.612274 6.75006 0.400328 6.67106 0.244059 6.53044C0.0877909 6.38981 0 6.19909 0 6.00021Z" fill="#01115D"/>
</svg>
